<?xml version="1.0" encoding="UTF-8" standalone="no"?>
<!DOCTYPE svg PUBLIC "-//W3C//DTD SVG 1.1//EN" "http://www.w3.org/Graphics/SVG/1.1/DTD/svg11.dtd">
<svg width="100%" height="100%" viewBox="0 0 166 166" version="1.1" xmlns="http://www.w3.org/2000/svg" xmlns:xlink="http://www.w3.org/1999/xlink" xml:space="preserve" xmlns:serif="http://www.serif.com/" style="fill-rule:evenodd;clip-rule:evenodd;stroke-linejoin:round;stroke-miterlimit:2;">
    <g transform="matrix(1,0,0,1,-5192,-880)">
        <g transform="matrix(1.62961,0,0,1.75322,-2950.67,16)">
            <g transform="matrix(1.1,0,0,1.01852,-512.626,84.8161)">
                <g id="Bakmi---Soto" serif:id="Bakmi &amp; Soto">
                    <g>
                        <g transform="matrix(0.581246,0,0,0.583488,2153.24,64.2952)">
                            <circle cx="4992.03" cy="655.544" r="79.18" style="fill:rgb(96,155,40);"/>
                        </g>
                        <g transform="matrix(0.204548,0,0,0.205337,5018.02,409.837)">
                            <path d="M360,180C360,279.41 279.41,360 180,360C80.59,360 0,279.41 0,180C0,80.59 80.59,0 180,0C279.41,0 360,80.59 360,180Z" style="fill:rgb(1,37,20);fill-rule:nonzero;"/>
                            <path d="M336,180C336,266.156 266.156,336 180,336C93.844,336 24,266.156 24,180C24,93.844 93.844,24 180,24C266.156,24 336,93.844 336,180Z" style="fill:rgb(245,135,30);fill-rule:nonzero;"/>
                            <path d="M24,180C24,201.273 28.266,221.547 35.973,240.027C54.453,247.735 74.727,252 96,252C182.156,252 252,182.156 252,96C252,74.727 247.734,54.453 240.027,35.973C221.547,28.266 201.273,24 180,24C93.844,24 24,93.844 24,180Z" style="fill:rgb(250,160,25);fill-rule:nonzero;"/>
                            <path d="M30,186C33.312,186 36,183.312 36,180C36,100.598 100.598,36 180,36C183.312,36 186,33.312 186,30C186,26.688 183.312,24 180,24C93.844,24 24,93.844 24,180C24,183.312 26.688,186 30,186Z" style="fill:rgb(255,210,60);fill-rule:nonzero;"/>
                            <path d="M180,360C173.371,360 168,354.629 168,348C168,341.371 173.371,336 180,336C266.02,336 336,266.02 336,180C336,173.371 341.371,168 348,168C354.629,168 360,173.371 360,180C360,228.078 341.277,273.281 307.281,307.281C273.281,341.277 228.078,360 180,360Z" style="fill:rgb(67,67,67);fill-rule:nonzero;"/>
                            <path d="M6,102C4.465,102 2.93,101.414 1.758,100.242C-0.586,97.898 -0.586,94.102 1.758,91.758L2.773,90.742C10.988,82.523 21.914,78 33.531,78L60,78C63.312,78 66,80.688 66,84C66,87.312 63.312,90 60,90L33.531,90C25.117,90 17.207,93.277 11.258,99.227L10.242,100.242C9.07,101.414 7.535,102 6,102Z" style="fill:rgb(225,50,45);fill-rule:nonzero;"/>
                            <path d="M24,120C22.465,120 20.93,119.414 19.758,118.242C17.414,115.898 17.414,112.102 19.758,109.758L20.773,108.742C28.988,100.523 39.914,96 51.531,96L78,96C81.312,96 84,98.688 84,102C84,105.312 81.312,108 78,108L51.531,108C43.117,108 35.207,111.277 29.258,117.227L28.242,118.242C27.07,119.414 25.535,120 24,120Z" style="fill:rgb(225,50,45);fill-rule:nonzero;"/>
                            <path d="M180,60C239.648,60 288,108.352 288,168C288,227.648 239.648,276 180,276L180,252C206.512,252 228,230.512 228,204C228,177.488 206.512,156 180,156L180,60Z" style="fill:rgb(225,50,45);fill-rule:nonzero;"/>
                            <path d="M180,60L6,60C2.688,60 0,62.688 0,66C0,69.312 2.688,72 6,72L13.188,72C25.867,72 37.223,79.953 41.434,91.914C54.59,129.242 90.168,156 132,156L180,156C206.508,156 228,134.508 228,108C228,81.492 206.508,60 180,60Z" style="fill:rgb(240,75,55);fill-rule:nonzero;"/>
                            <path d="M174,72L6,72C2.688,72 0,69.312 0,66C0,62.688 2.688,60 6,60L174,60C177.312,60 180,62.688 180,66C180,69.312 177.312,72 174,72Z" style="fill:rgb(245,130,110);fill-rule:nonzero;"/>
                            <path d="M144,228L156,228C169.254,228 180,238.746 180,252L144,252C137.371,252 132,246.629 132,240C132,233.371 137.371,228 144,228Z" style="fill:rgb(225,50,45);fill-rule:nonzero;"/>
                            <path d="M144,276L180,276L180,252L144,252C137.371,252 132,257.371 132,264C132,270.629 137.371,276 144,276Z" style="fill:rgb(225,50,45);fill-rule:nonzero;"/>
                            <path d="M84,66C84,69.312 81.312,72 78,72C74.688,72 72,69.312 72,66C72,62.688 74.688,60 78,60C81.312,60 84,62.688 84,66Z" style="fill:rgb(70,60,75);fill-rule:nonzero;"/>
                            <path d="M132,204C132,230.508 110.508,252 84,252C57.492,252 36,230.508 36,204C36,177.492 57.492,156 84,156C110.508,156 132,177.492 132,204Z" style="fill:rgb(145,200,60);fill-rule:nonzero;"/>
                            <path d="M126,201L91.242,201L115.82,176.422C116.992,175.25 116.992,173.352 115.82,172.18C114.648,171.008 112.75,171.008 111.578,172.18L87,196.758L87,162C87,160.344 85.656,159 84,159C82.344,159 81,160.344 81,162L81,196.758L56.422,172.18C55.25,171.008 53.351,171.008 52.18,172.18C51.008,173.352 51.008,175.25 52.18,176.422L76.758,201L42,201C40.344,201 39,202.344 39,204C39,205.656 40.344,207 42,207L76.758,207L52.18,231.578C51.008,232.75 51.008,234.648 52.18,235.82C52.766,236.406 53.535,236.699 54.301,236.699C55.07,236.699 55.836,236.406 56.422,235.82L81,211.242L81,246C81,247.656 82.344,249 84,249C85.656,249 87,247.656 87,246L87,211.242L111.578,235.82C112.164,236.406 112.934,236.699 113.699,236.699C114.469,236.699 115.234,236.406 115.82,235.82C116.992,234.648 116.992,232.75 115.82,231.578L91.242,207L126,207C127.656,207 129,205.656 129,204C129,202.344 127.656,201 126,201Z" style="fill:rgb(95,170,70);fill-rule:nonzero;"/>
                            <path d="M84,162C107.16,162 126,180.84 126,204C126,227.16 107.16,246 84,246C60.84,246 42,227.16 42,204C42,180.84 60.84,162 84,162ZM84,156C57.492,156 36,177.492 36,204C36,230.508 57.492,252 84,252C110.508,252 132,230.508 132,204C132,177.492 110.508,156 84,156Z" style="fill:rgb(75,140,65);fill-rule:nonzero;"/>
                            <path d="M225,300L222,300C212.059,300 204,308.059 204,318L204,321C204,322.656 205.344,324 207,324L210,324C219.941,324 228,315.941 228,306L228,303C228,301.344 226.656,300 225,300Z" style="fill:rgb(75,140,65);fill-rule:nonzero;"/>
                            <path d="M159,180L162,180C171.941,180 180,188.059 180,198L180,201C180,202.656 178.656,204 177,204L174,204C164.059,204 156,195.941 156,186L156,183C156,181.344 157.344,180 159,180Z" style="fill:rgb(75,140,65);fill-rule:nonzero;"/>
                            <path d="M321,132L318,132C308.059,132 300,140.059 300,150L300,153C300,154.656 301.344,156 303,156L306,156C315.941,156 324,147.941 324,138L324,135C324,133.344 322.656,132 321,132Z" style="fill:rgb(75,140,65);fill-rule:nonzero;"/>
                            <path d="M300,228C300,241.254 289.254,252 276,252C262.746,252 252,241.254 252,228C252,214.746 262.746,204 276,204C289.254,204 300,214.746 300,228Z" style="fill:rgb(240,100,35);fill-rule:nonzero;"/>
                            <path d="M264,120C264,126.629 258.629,132 252,132C245.371,132 240,126.629 240,120C240,113.371 245.371,108 252,108C258.629,108 264,113.371 264,120Z" style="fill:rgb(240,100,35);fill-rule:nonzero;"/>
                            <path d="M108,276C108,282.629 102.629,288 96,288C89.371,288 84,282.629 84,276C84,269.371 89.371,264 96,264C102.629,264 108,269.371 108,276Z" style="fill:rgb(240,100,35);fill-rule:nonzero;"/>
                            <path d="M264,270C264,273.312 261.312,276 258,276C254.688,276 252,273.312 252,270C252,266.688 254.688,264 258,264C261.312,264 264,266.688 264,270Z" style="fill:rgb(240,100,35);fill-rule:nonzero;"/>
                            <path d="M164,314C164,317.312 161.312,320 158,320C154.688,320 152,317.312 152,314C152,310.688 154.688,308 158,308C161.312,308 164,310.688 164,314Z" style="fill:rgb(240,75,55);fill-rule:nonzero;"/>
                            <path d="M226,50C226,53.312 223.312,56 220,56C216.688,56 214,53.312 214,50C214,46.688 216.688,44 220,44C223.312,44 226,46.688 226,50Z" style="fill:rgb(240,75,55);fill-rule:nonzero;"/>
                            <path d="M54,144C54,147.312 51.312,150 48,150C44.688,150 42,147.312 42,144C42,140.688 44.688,138 48,138C51.312,138 54,140.688 54,144Z" style="fill:rgb(240,75,55);fill-rule:nonzero;"/>
                            <path d="M318,196C318,199.312 315.312,202 312,202C308.688,202 306,199.312 306,196C306,192.688 308.688,190 312,190C315.312,190 318,192.688 318,196Z" style="fill:rgb(240,75,55);fill-rule:nonzero;"/>
                            <path d="M204,222C204,225.312 201.312,228 198,228C194.688,228 192,225.312 192,222C192,218.688 194.688,216 198,216C201.312,216 204,218.688 204,222Z" style="fill:rgb(240,100,35);fill-rule:nonzero;"/>
                        </g>
                    </g>
                </g>
            </g>
        </g>
    </g>
</svg>
