<?xml version="1.0" encoding="UTF-8" standalone="no"?>
<!DOCTYPE svg PUBLIC "-//W3C//DTD SVG 1.1//EN" "http://www.w3.org/Graphics/SVG/1.1/DTD/svg11.dtd">
<svg width="100%" height="100%" viewBox="0 0 166 166" version="1.1" xmlns="http://www.w3.org/2000/svg" xmlns:xlink="http://www.w3.org/1999/xlink" xml:space="preserve" xmlns:serif="http://www.serif.com/" style="fill-rule:evenodd;clip-rule:evenodd;stroke-linejoin:round;stroke-miterlimit:2;">
    <g transform="matrix(1,0,0,1,-5792,-880)">
        <g transform="matrix(1.62961,0,0,1.75322,-2950.67,16)">
            <g transform="matrix(1.1,0,0,1.01852,-525.874,84.8161)">
                <g id="Minuman">
                    <g>
                        <g transform="matrix(0.581246,0,0,0.583488,2500,64.2952)">
                            <circle cx="4992.03" cy="655.544" r="79.18" style="fill:rgb(179,116,208);"/>
                        </g>
                        <g transform="matrix(0.346667,0,0,0.3376,3631.27,223.802)">
                            <g transform="matrix(0.590041,0,0,0.608225,5042.97,551.052)">
                                <path d="M119.141,76.457L96.859,67.543L120.859,7.543C122.68,2.988 127.094,0 132,0L174,0C177.312,0 180,2.688 180,6L180,18C180,21.312 177.312,24 174,24L140.125,24L119.141,76.457Z" style="fill:white;fill-rule:nonzero;"/>
                            </g>
                            <g transform="matrix(0.590041,0,0,0.608225,5042.97,551.052)">
                                <path d="M132,60L84,60C44.233,60 12,92.234 12,132L204,132C204,92.234 171.766,60 132,60Z" style="fill:rgb(90,215,255);fill-rule:nonzero;"/>
                            </g>
                            <g transform="matrix(0.590041,0,0,0.608225,5042.97,551.052)">
                                <path d="M30,138C26.688,138 24,135.312 24,132C24,98.914 50.914,72 84,72C87.312,72 90,74.688 90,78C90,81.312 87.312,84 84,84C57.531,84 36,105.531 36,132C36,135.312 33.312,138 30,138Z" style="fill:rgb(165,255,255);fill-rule:nonzero;"/>
                            </g>
                            <g transform="matrix(0.590041,0,0,0.608225,5042.97,551.052)">
                                <path d="M204,156L12,156C5.371,156 0,150.629 0,144C0,137.371 5.371,132 12,132L204,132C210.629,132 216,137.371 216,144C216,150.629 210.629,156 204,156Z" style="fill:rgb(35,170,230);fill-rule:nonzero;"/>
                            </g>
                            <g transform="matrix(0.590041,0,0,0.608225,5042.97,551.052)">
                                <path d="M108,156L12,156C5.371,156 0,150.629 0,144C0,137.371 5.371,132 12,132L108,132C114.629,132 120,137.371 120,144C120,150.629 114.629,156 108,156Z" style="fill:rgb(90,215,255);fill-rule:nonzero;"/>
                            </g>
                            <g transform="matrix(0.590041,0,0,0.608225,5042.97,551.052)">
                                <path d="M12,156L34.867,349.258C35.512,355.363 40.66,360 46.804,360L169.195,360C175.336,360 180.488,355.363 181.129,349.258L204,156L12,156Z" style="fill:rgb(240,145,90);fill-rule:nonzero;"/>
                            </g>
                            <g transform="matrix(0.590041,0,0,0.608225,5042.97,551.052)">
                                <path d="M96,168L13.262,168L34.738,348L108,348L108,180C108,173.371 102.629,168 96,168Z" style="fill:rgb(250,185,145);fill-rule:nonzero;"/>
                            </g>
                            <g transform="matrix(0.590041,0,0,0.608225,5042.97,551.052)">
                                <path d="M72,300C72,309.941 63.941,318 54,318C44.059,318 36,309.941 36,300C36,290.059 44.059,282 54,282C63.941,282 72,290.059 72,300Z" style="fill:rgb(240,145,90);fill-rule:nonzero;"/>
                            </g>
                            <g transform="matrix(0.590041,0,0,0.608225,5042.97,551.052)">
                                <path d="M72,270C72,279.941 63.941,288 54,288C44.059,288 36,279.941 36,270C36,260.059 44.059,252 54,252C63.941,252 72,260.059 72,270Z" style="fill:rgb(240,145,90);fill-rule:nonzero;"/>
                            </g>
                            <g transform="matrix(0.590041,0,0,0.608225,5042.97,551.052)">
                                <path d="M108,270C108,279.941 99.941,288 90,288C80.059,288 72,279.941 72,270C72,260.059 80.059,252 90,252C99.941,252 108,260.059 108,270Z" style="fill:rgb(240,145,90);fill-rule:nonzero;"/>
                            </g>
                            <g transform="matrix(0.590041,0,0,0.608225,5042.97,551.052)">
                                <path d="M180,300C180,309.941 171.941,318 162,318C152.059,318 144,309.941 144,300C144,290.059 152.059,282 162,282C171.941,282 180,290.059 180,300Z" style="fill:rgb(210,100,60);fill-rule:nonzero;"/>
                            </g>
                            <g transform="matrix(0.590041,0,0,0.608225,5042.97,551.052)">
                                <path d="M180,270C180,279.941 171.941,288 162,288C152.059,288 144,279.941 144,270C144,260.059 152.059,252 162,252C171.941,252 180,260.059 180,270Z" style="fill:rgb(210,100,60);fill-rule:nonzero;"/>
                            </g>
                            <g transform="matrix(0.590041,0,0,0.608225,5042.97,551.052)">
                                <path d="M144,270C144,279.941 135.941,288 126,288C116.059,288 108,279.941 108,270C108,260.059 116.059,252 126,252C135.941,252 144,260.059 144,270Z" style="fill:rgb(210,100,60);fill-rule:nonzero;"/>
                            </g>
                            <g transform="matrix(0.590041,0,0,0.608225,5042.97,551.052)">
                                <path d="M156,84C182.508,84 204,105.492 204,132L108,132C108,105.492 129.492,84 156,84Z" style="fill:rgb(35,170,230);fill-rule:nonzero;"/>
                            </g>
                            <g transform="matrix(0.590041,0,0,0.608225,5042.97,551.052)">
                                <path d="M108,330C108,339.941 99.941,348 90,348C80.059,348 72,339.941 72,330C72,320.059 80.059,312 90,312C99.941,312 108,320.059 108,330Z" style="fill:rgb(85,90,110);fill-rule:nonzero;"/>
                            </g>
                            <g transform="matrix(0.590041,0,0,0.608225,5042.97,551.052)">
                                <path d="M90,312C80.059,312 72,320.059 72,330L78,330C84.629,330 90,324.629 90,318L90,312Z" style="fill:rgb(110,120,140);fill-rule:nonzero;"/>
                            </g>
                            <g transform="matrix(0.590041,0,0,0.608225,5042.97,551.052)">
                                <path d="M90,300C90,309.941 81.941,318 72,318C62.059,318 54,309.941 54,300C54,290.059 62.059,282 72,282C81.941,282 90,290.059 90,300Z" style="fill:rgb(85,90,110);fill-rule:nonzero;"/>
                            </g>
                            <g transform="matrix(0.590041,0,0,0.608225,5042.97,551.052)">
                                <path d="M72,282C62.059,282 54,290.059 54,300L60,300C66.629,300 72,294.629 72,288L72,282Z" style="fill:rgb(110,120,140);fill-rule:nonzero;"/>
                            </g>
                            <g transform="matrix(0.590041,0,0,0.608225,5042.97,551.052)">
                                <path d="M126,300C126,309.941 117.941,318 108,318C98.059,318 90,309.941 90,300C90,290.059 98.059,282 108,282C117.941,282 126,290.059 126,300Z" style="fill:rgb(85,90,110);fill-rule:nonzero;"/>
                            </g>
                            <g transform="matrix(0.590041,0,0,0.608225,5042.97,551.052)">
                                <path d="M108,282C98.059,282 90,290.059 90,300L96,300C102.629,300 108,294.629 108,288L108,282Z" style="fill:rgb(110,120,140);fill-rule:nonzero;"/>
                            </g>
                            <g transform="matrix(0.590041,0,0,0.608225,5042.97,551.052)">
                                <path d="M108,318L108,282C117.941,282 126,290.059 126,300C126,309.941 117.941,318 108,318Z" style="fill:rgb(70,60,75);fill-rule:nonzero;"/>
                            </g>
                            <g transform="matrix(0.590041,0,0,0.608225,5042.97,551.052)">
                                <path d="M72,330C72,339.941 63.941,348 54,348C44.059,348 36,339.941 36,330C36,320.059 44.059,312 54,312C63.941,312 72,320.059 72,330Z" style="fill:rgb(85,90,110);fill-rule:nonzero;"/>
                            </g>
                            <g transform="matrix(0.590041,0,0,0.608225,5042.97,551.052)">
                                <path d="M54,312C44.059,312 36,320.059 36,330L42,330C48.629,330 54,324.629 54,318L54,312Z" style="fill:rgb(110,120,140);fill-rule:nonzero;"/>
                            </g>
                            <g transform="matrix(0.590041,0,0,0.608225,5042.97,551.052)">
                                <path d="M144,330C144,339.941 135.941,348 126,348C116.059,348 108,339.941 108,330C108,320.059 116.059,312 126,312C135.941,312 144,320.059 144,330Z" style="fill:rgb(70,60,75);fill-rule:nonzero;"/>
                            </g>
                            <g transform="matrix(0.590041,0,0,0.608225,5042.97,551.052)">
                                <path d="M126,312C116.059,312 108,320.059 108,330L114,330C120.629,330 126,324.629 126,318L126,312Z" style="fill:rgb(85,90,110);fill-rule:nonzero;"/>
                            </g>
                            <g transform="matrix(0.590041,0,0,0.608225,5042.97,551.052)">
                                <path d="M180,330C180,339.941 171.941,348 162,348C152.059,348 144,339.941 144,330C144,320.059 152.059,312 162,312C171.941,312 180,320.059 180,330Z" style="fill:rgb(70,60,75);fill-rule:nonzero;"/>
                            </g>
                            <g transform="matrix(0.590041,0,0,0.608225,5042.97,551.052)">
                                <path d="M162,312C152.059,312 144,320.059 144,330L150,330C156.629,330 162,324.629 162,318L162,312Z" style="fill:rgb(85,90,110);fill-rule:nonzero;"/>
                            </g>
                            <g transform="matrix(0.590041,0,0,0.608225,5042.97,551.052)">
                                <path d="M162,300C162,309.941 153.941,318 144,318C134.059,318 126,309.941 126,300C126,290.059 134.059,282 144,282C153.941,282 162,290.059 162,300Z" style="fill:rgb(70,60,75);fill-rule:nonzero;"/>
                            </g>
                            <g transform="matrix(0.590041,0,0,0.608225,5042.97,551.052)">
                                <path d="M144,282C134.059,282 126,290.059 126,300L132,300C138.629,300 144,294.629 144,288L144,282Z" style="fill:rgb(85,90,110);fill-rule:nonzero;"/>
                            </g>
                        </g>
                    </g>
                </g>
            </g>
        </g>
    </g>
</svg>
