<?xml version="1.0" encoding="UTF-8" standalone="no"?>
<!DOCTYPE svg PUBLIC "-//W3C//DTD SVG 1.1//EN" "http://www.w3.org/Graphics/SVG/1.1/DTD/svg11.dtd">
<svg width="100%" height="100%" viewBox="0 0 166 166" version="1.1" xmlns="http://www.w3.org/2000/svg" xmlns:xlink="http://www.w3.org/1999/xlink" xml:space="preserve" xmlns:serif="http://www.serif.com/" style="fill-rule:evenodd;clip-rule:evenodd;stroke-linejoin:round;stroke-miterlimit:2;">
    <g transform="matrix(1,0,0,1,-4992,-880)">
        <g transform="matrix(1.62961,0,0,1.75322,-2950.67,16)">
            <g transform="matrix(1.144,0,0,1.03156,-705.942,93.4697)">
                <g id="Nasi">
                    <g>
                        <g transform="matrix(0.55889,0,0,0.576114,2132.12,55.0938)">
                            <circle cx="4992.03" cy="655.544" r="79.18" style="fill:rgb(255,72,115);"/>
                        </g>
                        <g transform="matrix(0.19668,0,0,0.202742,4886.72,396.268)">
                            <path d="M360,180C360,279.41 279.41,360 180,360C80.59,360 0,279.41 0,180C0,80.59 80.59,0 180,0C279.41,0 360,80.59 360,180Z" style="fill:rgb(237,236,184);fill-rule:nonzero;"/>
                            <path d="M336,186C336,268.844 268.844,336 186,336C103.156,336 36,268.844 36,186C36,103.156 103.156,36 186,36C268.844,36 336,103.156 336,186Z" style="fill:rgb(191,201,136);fill-rule:nonzero;"/>
                            <path d="M324,180C324,259.527 259.527,324 180,324C100.473,324 36,259.527 36,180C36,100.473 100.473,36 180,36C259.527,36 324,100.473 324,180Z" style="fill:rgb(75,140,65);fill-rule:nonzero;"/>
                            <path d="M299.969,186.574C299.922,186.57 299.871,186.566 299.824,186.562C299.832,186.375 299.844,186.188 299.852,185.996C299.902,186 299.949,186 300,186C303.312,186 306,183.312 306,180C306,176.688 303.312,174 300,174C299.949,174 299.902,174 299.852,174.004C299.844,173.812 299.832,173.625 299.824,173.438C299.871,173.434 299.922,173.43 299.969,173.426C303.266,173.078 305.656,170.125 305.309,166.828C304.965,163.535 302.012,161.145 298.715,161.488C298.672,161.496 298.629,161.5 298.582,161.504C298.555,161.32 298.527,161.133 298.496,160.945C298.539,160.938 298.582,160.93 298.625,160.922C301.867,160.23 303.934,157.043 303.246,153.805C302.559,150.562 299.371,148.492 296.129,149.184C296.09,149.191 296.051,149.199 296.012,149.207C295.965,149.027 295.914,148.844 295.867,148.66C295.902,148.648 295.941,148.637 295.98,148.625C299.133,147.602 300.855,144.215 299.832,141.062C298.809,137.914 295.422,136.188 292.273,137.211C292.234,137.223 292.199,137.238 292.16,137.25C292.094,137.07 292.023,136.895 291.957,136.719C291.992,136.703 292.027,136.688 292.066,136.672C295.094,135.324 296.453,131.777 295.105,128.75C293.758,125.723 290.211,124.363 287.184,125.711C287.145,125.727 287.109,125.746 287.07,125.762C286.984,125.594 286.898,125.426 286.812,125.258C286.848,125.238 286.887,125.219 286.922,125.195C289.789,123.539 290.773,119.871 289.117,117C287.461,114.133 283.789,113.148 280.922,114.805C280.883,114.828 280.844,114.852 280.805,114.875C280.703,114.715 280.598,114.559 280.496,114.398C280.531,114.375 280.57,114.348 280.605,114.32C283.289,112.375 283.883,108.621 281.934,105.941C279.988,103.262 276.234,102.664 273.555,104.613C273.516,104.641 273.477,104.672 273.438,104.699C273.32,104.555 273.199,104.406 273.082,104.262C273.117,104.23 273.156,104.199 273.191,104.164C275.652,101.949 275.852,98.152 273.637,95.691C271.418,93.23 267.625,93.027 265.16,95.246C265.125,95.281 265.086,95.316 265.051,95.348C264.918,95.215 264.785,95.082 264.652,94.949C264.688,94.914 264.719,94.875 264.754,94.84C266.973,92.375 266.773,88.582 264.309,86.367C261.848,84.148 258.055,84.348 255.836,86.809C255.805,86.844 255.773,86.883 255.738,86.918C255.594,86.801 255.445,86.684 255.301,86.562C255.328,86.523 255.359,86.484 255.387,86.445C257.336,83.766 256.742,80.016 254.059,78.066C251.379,76.117 247.629,76.711 245.68,79.395C245.652,79.43 245.625,79.469 245.601,79.504C245.441,79.402 245.285,79.301 245.125,79.195C245.148,79.156 245.172,79.117 245.195,79.078C246.851,76.211 245.871,72.539 243,70.883C240.129,69.227 236.461,70.211 234.805,73.078C234.781,73.117 234.762,73.152 234.742,73.188C234.574,73.102 234.406,73.016 234.238,72.93C234.254,72.891 234.273,72.855 234.289,72.816C235.637,69.789 234.277,66.242 231.25,64.895C228.223,63.547 224.676,64.91 223.328,67.938C223.312,67.973 223.297,68.008 223.281,68.043C223.105,67.977 222.93,67.906 222.75,67.84C222.762,67.805 222.777,67.766 222.789,67.73C223.812,64.578 222.086,61.191 218.938,60.168C215.785,59.145 212.398,60.867 211.375,64.02C211.363,64.059 211.352,64.098 211.34,64.133C211.156,64.086 210.973,64.035 210.793,63.988C210.801,63.949 210.809,63.91 210.816,63.871C211.508,60.629 209.438,57.441 206.195,56.754C202.953,56.066 199.77,58.133 199.078,61.375C199.07,61.418 199.062,61.461 199.055,61.508C198.867,61.477 198.68,61.449 198.496,61.418C198.5,61.375 198.504,61.332 198.512,61.285C198.855,57.988 196.465,55.039 193.172,54.691C189.875,54.344 186.922,56.734 186.574,60.031C186.57,60.082 186.566,60.129 186.562,60.18C186.375,60.168 186.188,60.16 185.996,60.148C186,60.098 186,60.051 186,60C186,56.688 183.312,54 180,54C176.688,54 174,56.688 174,60L174,60.148C173.812,60.156 173.625,60.168 173.438,60.176C173.434,60.129 173.43,60.078 173.422,60.031C173.078,56.734 170.125,54.344 166.828,54.691C163.535,55.035 161.145,57.988 161.488,61.285C161.492,61.328 161.5,61.371 161.504,61.418C161.316,61.445 161.133,61.473 160.945,61.504C160.938,61.461 160.93,61.418 160.922,61.375C160.23,58.133 157.043,56.062 153.805,56.754C150.562,57.441 148.492,60.629 149.184,63.871C149.191,63.91 149.199,63.949 149.207,63.988C149.023,64.035 148.844,64.086 148.66,64.133C148.648,64.094 148.637,64.059 148.625,64.02C147.602,60.867 144.215,59.141 141.062,60.168C137.91,61.191 136.188,64.574 137.211,67.727C137.223,67.766 137.234,67.801 137.25,67.84C137.07,67.906 136.895,67.973 136.719,68.043C136.703,68.008 136.688,67.969 136.672,67.934C135.324,64.906 131.777,63.547 128.75,64.895C125.723,66.242 124.359,69.789 125.711,72.816C125.727,72.852 125.746,72.891 125.762,72.93C125.594,73.016 125.426,73.098 125.258,73.188C125.238,73.148 125.215,73.113 125.195,73.078C123.539,70.207 119.867,69.227 117,70.883C114.129,72.539 113.148,76.207 114.805,79.078C114.824,79.117 114.848,79.156 114.871,79.195C114.715,79.297 114.555,79.398 114.398,79.504C114.371,79.465 114.348,79.43 114.32,79.391C112.371,76.711 108.621,76.117 105.938,78.066C103.258,80.012 102.664,83.766 104.613,86.445C104.641,86.484 104.668,86.523 104.699,86.562C104.551,86.68 104.406,86.801 104.258,86.918C104.227,86.883 104.195,86.844 104.164,86.809C101.945,84.348 98.152,84.145 95.691,86.363C93.227,88.582 93.027,92.375 95.246,94.836C95.277,94.875 95.312,94.91 95.348,94.949C95.215,95.082 95.082,95.215 94.949,95.348C94.91,95.312 94.875,95.277 94.836,95.246C92.375,93.027 88.582,93.227 86.363,95.691C84.148,98.152 84.348,101.945 86.809,104.164C86.844,104.195 86.879,104.227 86.918,104.258C86.801,104.406 86.68,104.551 86.562,104.699C86.523,104.672 86.484,104.641 86.445,104.613C83.766,102.664 80.012,103.258 78.066,105.938C76.117,108.621 76.711,112.371 79.391,114.32C79.43,114.348 79.465,114.371 79.504,114.398C79.398,114.555 79.297,114.715 79.195,114.871C79.156,114.852 79.117,114.828 79.078,114.805C76.207,113.148 72.539,114.129 70.883,117C69.227,119.867 70.207,123.539 73.078,125.195C73.113,125.215 73.152,125.238 73.188,125.258C73.102,125.426 73.016,125.594 72.93,125.762C72.891,125.742 72.852,125.727 72.816,125.711C69.789,124.359 66.242,125.723 64.895,128.75C63.547,131.777 64.906,135.324 67.934,136.672C67.969,136.688 68.008,136.703 68.043,136.719C67.973,136.895 67.906,137.07 67.84,137.246C67.801,137.234 67.766,137.223 67.727,137.211C64.574,136.188 61.191,137.91 60.168,141.062C59.141,144.215 60.867,147.598 64.02,148.621C64.059,148.637 64.094,148.648 64.133,148.66C64.082,148.84 64.035,149.023 63.988,149.207C63.949,149.199 63.91,149.188 63.871,149.18C60.629,148.492 57.441,150.562 56.754,153.801C56.062,157.043 58.133,160.23 61.375,160.918C61.418,160.926 61.461,160.938 61.504,160.945C61.473,161.133 61.445,161.316 61.414,161.504C61.371,161.5 61.328,161.492 61.285,161.488C57.988,161.141 55.035,163.531 54.688,166.828C54.344,170.125 56.734,173.078 60.027,173.422C60.078,173.43 60.129,173.434 60.176,173.438C60.164,173.625 60.156,173.812 60.148,174L60,174C56.688,174 54,176.688 54,180C54,183.312 56.688,186 60,186C60.051,186 60.098,186 60.148,185.996C60.156,186.188 60.168,186.375 60.176,186.562C60.129,186.566 60.078,186.57 60.031,186.574C56.734,186.922 54.344,189.875 54.691,193.172C55.035,196.465 57.988,198.855 61.285,198.512C61.328,198.504 61.371,198.5 61.418,198.496C61.445,198.68 61.473,198.867 61.504,199.055C61.461,199.062 61.418,199.07 61.375,199.078C58.133,199.77 56.066,202.957 56.754,206.195C57.441,209.438 60.629,211.508 63.871,210.816C63.91,210.809 63.949,210.801 63.988,210.793C64.035,210.973 64.086,211.156 64.133,211.34C64.098,211.352 64.059,211.363 64.02,211.375C60.867,212.398 59.145,215.785 60.168,218.938C61.191,222.086 64.578,223.812 67.727,222.789C67.766,222.777 67.801,222.762 67.84,222.75C67.906,222.93 67.977,223.105 68.043,223.281C68.008,223.297 67.973,223.312 67.934,223.328C64.906,224.676 63.547,228.223 64.895,231.25C66.242,234.277 69.789,235.637 72.816,234.289C72.855,234.273 72.891,234.254 72.93,234.238C73.016,234.406 73.102,234.574 73.188,234.742C73.152,234.762 73.113,234.785 73.078,234.805C70.211,236.461 69.227,240.129 70.883,243C72.539,245.871 76.211,246.852 79.078,245.195C79.117,245.172 79.156,245.149 79.195,245.125C79.297,245.285 79.402,245.442 79.504,245.602C79.469,245.629 79.43,245.653 79.395,245.68C76.711,247.629 76.117,251.379 78.066,254.059C80.012,256.742 83.766,257.336 86.445,255.387C86.484,255.359 86.523,255.328 86.562,255.301C86.68,255.445 86.801,255.594 86.918,255.738C86.883,255.77 86.844,255.805 86.809,255.836C84.348,258.055 84.148,261.848 86.363,264.309C88.582,266.773 92.375,266.973 94.84,264.754C94.875,264.719 94.914,264.688 94.949,264.652C95.082,264.785 95.215,264.918 95.348,265.051C95.312,265.086 95.281,265.125 95.246,265.16C93.027,267.625 93.227,271.418 95.691,273.637C98.152,275.852 101.945,275.652 104.164,273.191C104.195,273.156 104.227,273.117 104.262,273.082C104.406,273.199 104.555,273.32 104.699,273.438C104.672,273.477 104.641,273.516 104.613,273.555C102.664,276.234 103.258,279.988 105.941,281.934C108.621,283.883 112.371,283.289 114.32,280.605C114.348,280.57 114.375,280.531 114.398,280.496C114.559,280.598 114.715,280.703 114.875,280.805C114.852,280.844 114.828,280.883 114.805,280.922C113.148,283.789 114.129,287.461 117,289.117C119.871,290.773 123.539,289.789 125.195,286.922C125.219,286.887 125.238,286.848 125.258,286.812C125.426,286.898 125.594,286.984 125.762,287.07C125.746,287.109 125.727,287.145 125.711,287.184C124.363,290.211 125.723,293.758 128.75,295.105C131.777,296.453 135.324,295.094 136.672,292.062C136.688,292.027 136.703,291.992 136.719,291.957C136.895,292.023 137.07,292.094 137.25,292.16C137.238,292.195 137.223,292.234 137.211,292.27C136.188,295.422 137.914,298.809 141.062,299.832C144.215,300.855 147.602,299.133 148.625,295.98C148.637,295.941 148.648,295.902 148.66,295.867C148.844,295.914 149.027,295.965 149.207,296.012C149.199,296.051 149.191,296.09 149.184,296.129C148.492,299.371 150.562,302.559 153.805,303.246C157.047,303.934 160.23,301.867 160.922,298.625C160.93,298.582 160.938,298.539 160.945,298.492C161.133,298.523 161.32,298.551 161.504,298.582C161.5,298.625 161.496,298.668 161.488,298.715C161.145,302.012 163.535,304.961 166.828,305.309C170.125,305.652 173.078,303.266 173.426,299.969C173.43,299.918 173.434,299.871 173.438,299.82C173.625,299.832 173.812,299.84 174.004,299.852C174,299.902 174,299.949 174,300C174,303.312 176.688,306 180,306C183.312,306 186,303.312 186,300L186,299.852C186.188,299.844 186.375,299.832 186.562,299.824C186.566,299.871 186.57,299.922 186.578,299.969C186.922,303.266 189.875,305.656 193.172,305.309C196.465,304.965 198.855,302.012 198.512,298.715C198.508,298.672 198.5,298.629 198.496,298.582C198.684,298.555 198.867,298.527 199.055,298.496C199.062,298.539 199.07,298.582 199.078,298.625C199.77,301.867 202.957,303.938 206.195,303.246C209.438,302.559 211.508,299.371 210.816,296.129C210.809,296.09 210.801,296.051 210.793,296.012C210.977,295.965 211.156,295.914 211.34,295.867C211.352,295.906 211.363,295.941 211.375,295.98C212.398,299.133 215.785,300.859 218.938,299.832C222.09,298.809 223.812,295.426 222.789,292.273C222.777,292.234 222.766,292.199 222.75,292.16C222.93,292.094 223.105,292.027 223.281,291.957C223.297,291.992 223.312,292.031 223.328,292.066C224.676,295.094 228.223,296.453 231.25,295.105C234.277,293.758 235.641,290.211 234.289,287.184C234.273,287.148 234.254,287.109 234.238,287.07C234.406,286.988 234.574,286.902 234.742,286.812C234.762,286.852 234.785,286.887 234.805,286.922C236.461,289.793 240.133,290.777 243,289.117C245.871,287.461 246.851,283.793 245.195,280.922C245.176,280.883 245.148,280.844 245.129,280.805C245.285,280.703 245.445,280.602 245.601,280.496C245.629,280.535 245.652,280.57 245.68,280.609C247.629,283.289 251.379,283.883 254.062,281.938C256.742,279.988 257.336,276.234 255.387,273.555C255.359,273.516 255.332,273.477 255.301,273.438C255.449,273.32 255.594,273.203 255.742,273.082C255.773,273.121 255.805,273.156 255.836,273.191C258.055,275.656 261.848,275.855 264.309,273.637C266.773,271.418 266.973,267.625 264.754,265.164C264.723,265.125 264.688,265.09 264.652,265.055C264.785,264.922 264.918,264.785 265.051,264.652C265.09,264.688 265.125,264.723 265.164,264.754C267.625,266.973 271.418,266.773 273.637,264.312C275.852,261.848 275.652,258.055 273.191,255.836C273.156,255.805 273.121,255.773 273.082,255.742C273.199,255.594 273.32,255.449 273.438,255.301L273.555,255.391C276.234,257.336 279.988,256.742 281.934,254.062C283.883,251.383 283.289,247.629 280.609,245.68C280.57,245.653 280.535,245.629 280.496,245.602C280.602,245.445 280.703,245.285 280.805,245.129C280.844,245.153 280.883,245.176 280.922,245.199C283.793,246.856 287.461,245.871 289.117,243C290.773,240.133 289.793,236.461 286.922,234.805C286.887,234.785 286.848,234.766 286.812,234.746C286.898,234.578 286.984,234.406 287.07,234.238C287.109,234.258 287.148,234.273 287.184,234.293C290.211,235.641 293.758,234.277 295.105,231.25C296.453,228.223 295.094,224.676 292.066,223.328C292.031,223.312 291.992,223.297 291.957,223.281C292.027,223.105 292.094,222.93 292.16,222.754C292.199,222.766 292.234,222.777 292.273,222.789C295.426,223.812 298.809,222.09 299.832,218.938C300.859,215.785 299.133,212.402 295.98,211.379C295.941,211.363 295.906,211.352 295.867,211.34C295.918,211.16 295.965,210.977 296.012,210.793C296.051,210.801 296.09,210.812 296.129,210.82C299.371,211.508 302.559,209.438 303.246,206.199C303.938,202.957 301.867,199.77 298.625,199.082C298.582,199.074 298.539,199.062 298.496,199.055C298.527,198.867 298.555,198.684 298.586,198.496C298.629,198.5 298.672,198.508 298.715,198.512C302.012,198.859 304.965,196.469 305.312,193.172C305.656,189.875 303.266,186.922 299.969,186.574Z" style="fill:rgb(250,160,25);fill-rule:nonzero;"/>
                            <path d="M167.316,60.668C111.176,66.566 66.566,111.172 60.668,167.316C66.266,215 106.809,252 156,252C209.02,252 252,209.02 252,156C252,106.809 215,66.266 167.316,60.668Z" style="fill:rgb(255,190,40);fill-rule:nonzero;"/>
                            <path d="M204,120C204,126.629 198.629,132 192,132C185.371,132 180,126.629 180,120C180,113.371 185.371,108 192,108C198.629,108 204,113.371 204,120Z" style="fill:rgb(240,75,55);fill-rule:nonzero;"/>
                            <path d="M120,156C120,162.629 114.629,168 108,168C101.371,168 96,162.629 96,156C96,149.371 101.371,144 108,144C114.629,144 120,149.371 120,156Z" style="fill:rgb(240,75,55);fill-rule:nonzero;"/>
                            <path d="M348,141C348,159.227 333.227,174 315,174C296.773,174 282,159.227 282,141C282,122.773 296.773,108 315,108C333.227,108 348,122.773 348,141Z" style="fill:rgb(175,215,99);fill-rule:nonzero;"/>
                            <path d="M324,132C324,151.883 307.883,168 288,168C268.117,168 252,151.883 252,132C252,112.117 268.117,96 288,96C307.883,96 324,112.117 324,132Z" style="fill:rgb(145,200,60);fill-rule:nonzero;"/>
                            <path d="M348,171C348,189.227 333.227,204 315,204C296.773,204 282,189.227 282,171C282,152.773 296.773,138 315,138C333.227,138 348,152.773 348,171Z" style="fill:rgb(145,200,60);fill-rule:nonzero;"/>
                            <path d="M312,144C312,157.254 301.254,168 288,168C274.746,168 264,157.254 264,144C264,130.746 274.746,120 288,120C301.254,120 312,130.746 312,144Z" style="fill:rgb(95,170,70);fill-rule:nonzero;"/>
                            <path d="M324,192C324,211.883 307.883,228 288,228C268.117,228 252,211.883 252,192C252,172.117 268.117,156 288,156C307.883,156 324,172.117 324,192Z" style="fill:rgb(95,170,70);fill-rule:nonzero;"/>
                            <path d="M144,264C144,270.629 138.629,276 132,276C125.371,276 120,270.629 120,264C120,257.371 125.371,252 132,252C138.629,252 144,257.371 144,264Z" style="fill:rgb(225,50,45);fill-rule:nonzero;"/>
                            <path d="M312,216C312,269.02 269.02,312 216,312C162.98,312 120,269.02 120,216C120,162.98 162.98,120 216,120C269.02,120 312,162.98 312,216Z" style="fill:rgb(215,230,240);fill-rule:nonzero;"/>
                            <path d="M126,222C129.312,222 132,219.312 132,216C132,169.684 169.684,132 216,132C219.312,132 222,129.312 222,126C222,122.688 219.312,120 216,120C162.98,120 120,162.98 120,216C120,219.312 122.688,222 126,222Z" style="fill:white;fill-rule:nonzero;"/>
                            <path d="M252,204C252,230.508 230.508,252 204,252C177.492,252 156,230.508 156,204C156,177.492 177.492,156 204,156C230.508,156 252,177.492 252,204Z" style="fill:rgb(250,160,25);fill-rule:nonzero;"/>
                            <path d="M162,210C158.688,210 156,207.312 156,204C156,177.531 177.531,156 204,156C207.312,156 210,158.688 210,162C210,165.312 207.312,168 204,168C184.148,168 168,184.148 168,204C168,207.312 165.312,210 162,210Z" style="fill:rgb(255,210,5);fill-rule:nonzero;"/>
                            <path d="M170,90C170,93.312 167.312,96 164,96C160.688,96 158,93.312 158,90C158,86.688 160.688,84 164,84C167.312,84 170,86.688 170,90Z" style="fill:rgb(250,160,25);fill-rule:nonzero;"/>
                            <path d="M226,88C226,91.312 223.312,94 220,94C216.688,94 214,91.312 214,88C214,84.688 216.688,82 220,82C223.312,82 226,84.688 226,88Z" style="fill:rgb(250,160,25);fill-rule:nonzero;"/>
                            <path d="M78,200C78,203.312 75.312,206 72,206C68.688,206 66,203.312 66,200C66,196.688 68.688,194 72,194C75.312,194 78,196.688 78,200Z" style="fill:rgb(250,160,25);fill-rule:nonzero;"/>
                            <path d="M110,234C110,237.312 107.312,240 104,240C100.688,240 98,237.312 98,234C98,230.688 100.688,228 104,228C107.312,228 110,230.688 110,234Z" style="fill:rgb(250,160,25);fill-rule:nonzero;"/>
                            <path d="M112,178C112,181.312 109.312,184 106,184C102.688,184 100,181.312 100,178C100,174.688 102.688,172 106,172C109.312,172 112,174.688 112,178Z" style="fill:rgb(250,160,25);fill-rule:nonzero;"/>
                            <path d="M104,128C104,131.312 101.312,134 98,134C94.688,134 92,131.312 92,128C92,124.688 94.688,122 98,122C101.312,122 104,124.688 104,128Z" style="fill:rgb(250,160,25);fill-rule:nonzero;"/>
                            <path d="M158,114C158,117.312 155.312,120 152,120C148.688,120 146,117.312 146,114C146,110.688 148.688,108 152,108C155.312,108 158,110.688 158,114Z" style="fill:rgb(250,160,25);fill-rule:nonzero;"/>
                            <path d="M152,84C152,87.312 149.312,90 146,90C142.688,90 140,87.312 140,84C140,80.688 142.688,78 146,78C149.312,78 152,80.688 152,84Z" style="fill:rgb(250,160,25);fill-rule:nonzero;"/>
                            <path d="M144,126C144,129.312 141.312,132 138,132C134.688,132 132,129.312 132,126C132,122.688 134.688,120 138,120C141.312,120 144,122.688 144,126Z" style="fill:rgb(95,170,70);fill-rule:nonzero;"/>
                            <path d="M88,168C88,171.312 85.312,174 82,174C78.688,174 76,171.312 76,168C76,164.688 78.688,162 82,162C85.312,162 88,164.688 88,168Z" style="fill:rgb(95,170,70);fill-rule:nonzero;"/>
                            <path d="M248,104C248,107.312 245.312,110 242,110C238.688,110 236,107.312 236,104C236,100.688 238.688,98 242,98C245.312,98 248,100.688 248,104Z" style="fill:rgb(95,170,70);fill-rule:nonzero;"/>
                        </g>
                    </g>
                </g>
            </g>
        </g>
    </g>
</svg>
