<?xml version="1.0" encoding="UTF-8" standalone="no"?>
<!DOCTYPE svg PUBLIC "-//W3C//DTD SVG 1.1//EN" "http://www.w3.org/Graphics/SVG/1.1/DTD/svg11.dtd">
<svg width="100%" height="100%" viewBox="0 0 166 166" version="1.1" xmlns="http://www.w3.org/2000/svg" xmlns:xlink="http://www.w3.org/1999/xlink" xml:space="preserve" xmlns:serif="http://www.serif.com/" style="fill-rule:evenodd;clip-rule:evenodd;stroke-linejoin:round;stroke-miterlimit:2;">
    <g transform="matrix(1,0,0,1,-5392,-880)">
        <g transform="matrix(1.62961,0,0,1.75322,-2950.67,16)">
            <g transform="matrix(1.1,0,0,1.01852,-517.042,84.8161)">
                <g id="Sayuran">
                    <g>
                        <g transform="matrix(0.581246,0,0,0.583488,2268.83,64.2952)">
                            <circle cx="4992.03" cy="655.544" r="79.18" style="fill:rgb(254,180,69);"/>
                        </g>
                        <g transform="matrix(0.204548,0,0,0.205337,5133.6,409.837)">
                            <path d="M360,180C360,279.41 279.41,360 180,360C80.59,360 0,279.41 0,180C0,80.59 80.59,0 180,0C279.41,0 360,80.59 360,180Z" style="fill:rgb(67,67,67);fill-rule:nonzero;"/>
                            <path d="M348,186C348,275.469 275.469,348 186,348C96.531,348 24,275.469 24,186C24,96.531 96.531,24 186,24C275.469,24 348,96.531 348,186Z" style="fill:rgb(1,37,20);fill-rule:nonzero;"/>
                            <path d="M336,180L180,180L180,336C266.156,336 336,266.156 336,180Z" style="fill:rgb(165,195,220);fill-rule:nonzero;"/>
                            <path d="M24,180L180,180L180,336C93.844,336 24,266.156 24,180Z" style="fill:rgb(240,100,35);fill-rule:nonzero;"/>
                            <path d="M190,276C190,289.254 179.254,300 166,300C152.746,300 142,289.254 142,276C142,262.746 152.746,252 166,252C179.254,252 190,262.746 190,276Z" style="fill:rgb(250,160,25);fill-rule:nonzero;"/>
                            <path d="M132,252C132,265.254 121.254,276 108,276C94.746,276 84,265.254 84,252C84,238.746 94.746,228 108,228C121.254,228 132,238.746 132,252Z" style="fill:rgb(250,160,25);fill-rule:nonzero;"/>
                            <path d="M134,296C134,309.254 123.254,320 110,320C96.746,320 86,309.254 86,296C86,282.746 96.746,272 110,272C123.254,272 134,282.746 134,296Z" style="fill:rgb(250,160,25);fill-rule:nonzero;"/>
                            <path d="M184,318C184,327.941 175.941,336 166,336C156.059,336 148,327.941 148,318C148,308.059 156.059,300 166,300C175.941,300 184,308.059 184,318Z" style="fill:rgb(250,160,25);fill-rule:nonzero;"/>
                            <path d="M80,260C80,269.941 71.941,278 62,278C52.059,278 44,269.941 44,260C44,250.059 52.059,242 62,242C71.941,242 80,250.059 80,260Z" style="fill:rgb(250,160,25);fill-rule:nonzero;"/>
                            <path d="M92,222C92,231.941 83.941,240 74,240C64.059,240 56,231.941 56,222C56,212.059 64.059,204 74,204C83.941,204 92,212.059 92,222Z" style="fill:rgb(250,160,25);fill-rule:nonzero;"/>
                            <path d="M72,198C72,211.254 61.254,222 48,222C34.746,222 24,211.254 24,198C24,184.746 34.746,174 48,174C61.254,174 72,184.746 72,198Z" style="fill:rgb(250,160,25);fill-rule:nonzero;"/>
                            <path d="M143,288C143,294.629 137.629,300 131,300C124.371,300 119,294.629 119,288C119,281.371 124.371,276 131,276C137.629,276 143,281.371 143,288Z" style="fill:rgb(255,190,40);fill-rule:nonzero;"/>
                            <path d="M150,314C150,320.629 144.629,326 138,326C131.371,326 126,320.629 126,314C126,307.371 131.371,302 138,302C144.629,302 150,307.371 150,314Z" style="fill:rgb(250,160,25);fill-rule:nonzero;"/>
                            <path d="M186,302C186,308.629 180.629,314 174,314C167.371,314 162,308.629 162,302C162,295.371 167.371,290 174,290C180.629,290 186,295.371 186,302Z" style="fill:rgb(250,160,25);fill-rule:nonzero;"/>
                            <path d="M96,288C96,294.629 90.629,300 84,300C77.371,300 72,294.629 72,288C72,281.371 77.371,276 84,276C90.629,276 96,281.371 96,288Z" style="fill:rgb(255,190,40);fill-rule:nonzero;"/>
                            <path d="M106,194C106,200.629 100.629,206 94,206C87.371,206 82,200.629 82,194C82,187.371 87.371,182 94,182C100.629,182 106,187.371 106,194Z" style="fill:rgb(255,190,40);fill-rule:nonzero;"/>
                            <path d="M108,264C108,270.629 102.629,276 96,276C89.371,276 84,270.629 84,264C84,257.371 89.371,252 96,252C102.629,252 108,257.371 108,264Z" style="fill:rgb(250,160,25);fill-rule:nonzero;"/>
                            <path d="M72,240C72,246.629 66.629,252 60,252C53.371,252 48,246.629 48,240C48,233.371 53.371,228 60,228C66.629,228 72,233.371 72,240Z" style="fill:rgb(255,190,40);fill-rule:nonzero;"/>
                            <path d="M180,276C180,282.629 174.629,288 168,288C161.371,288 156,282.629 156,276C156,269.371 161.371,264 168,264C174.629,264 180,269.371 180,276Z" style="fill:rgb(255,190,40);fill-rule:nonzero;"/>
                            <path d="M92,216C92,222.629 86.629,228 80,228C73.371,228 68,222.629 68,216C68,209.371 73.371,204 80,204C86.629,204 92,209.371 92,216Z" style="fill:rgb(250,160,25);fill-rule:nonzero;"/>
                            <path d="M48,186C48,192.629 42.629,198 36,198C29.371,198 24,192.629 24,186C24,179.371 29.371,174 36,174C42.629,174 48,179.371 48,186Z" style="fill:rgb(255,190,40);fill-rule:nonzero;"/>
                            <path d="M48,222C48,225.312 45.312,228 42,228C38.688,228 36,225.312 36,222C36,218.688 38.688,216 42,216C45.312,216 48,218.688 48,222Z" style="fill:rgb(255,190,40);fill-rule:nonzero;"/>
                            <path d="M96,234C96,237.312 93.312,240 90,240C86.688,240 84,237.312 84,234C84,230.688 86.688,228 90,228C93.312,228 96,230.688 96,234Z" style="fill:rgb(255,190,40);fill-rule:nonzero;"/>
                            <path d="M132,258C132,261.312 129.312,264 126,264C122.688,264 120,261.312 120,258C120,254.688 122.688,252 126,252C129.312,252 132,254.688 132,258Z" style="fill:rgb(255,190,40);fill-rule:nonzero;"/>
                            <path d="M180,318C180,321.312 177.312,324 174,324C170.688,324 168,321.312 168,318C168,314.688 170.688,312 174,312C177.312,312 180,314.688 180,318Z" style="fill:rgb(255,190,40);fill-rule:nonzero;"/>
                            <path d="M64,198C64,204.629 58.629,210 52,210C45.371,210 40,204.629 40,198C40,191.371 45.371,186 52,186C58.629,186 64,191.371 64,198Z" style="fill:rgb(250,160,25);fill-rule:nonzero;"/>
                            <path d="M86,254C86,260.629 80.629,266 74,266C67.371,266 62,260.629 62,254C62,247.371 67.371,242 74,242C80.629,242 86,247.371 86,254Z" style="fill:rgb(250,160,25);fill-rule:nonzero;"/>
                            <path d="M130,284C130,290.629 124.629,296 118,296C111.371,296 106,290.629 106,284C106,277.371 111.371,272 118,272C124.629,272 130,277.371 130,284Z" style="fill:rgb(250,160,25);fill-rule:nonzero;"/>
                            <path d="M92,184C92,190.629 86.629,196 80,196C73.371,196 68,190.629 68,184C68,177.371 73.371,172 80,172C86.629,172 92,177.371 92,184Z" style="fill:rgb(250,160,25);fill-rule:nonzero;"/>
                            <path d="M336,180L180,180L180,24C266.156,24 336,93.844 336,180Z" style="fill:rgb(165,80,35);fill-rule:nonzero;"/>
                            <path d="M224,84C224,97.254 213.254,108 200,108C186.746,108 176,97.254 176,84C176,70.746 186.746,60 200,60C213.254,60 224,70.746 224,84Z" style="fill:rgb(210,110,40);fill-rule:nonzero;"/>
                            <path d="M276,108C276,121.254 265.254,132 252,132C238.746,132 228,121.254 228,108C228,94.746 238.746,84 252,84C265.254,84 276,94.746 276,108Z" style="fill:rgb(210,110,40);fill-rule:nonzero;"/>
                            <path d="M276,60C276,73.254 265.254,84 252,84C238.746,84 228,73.254 228,60C228,46.746 238.746,36 252,36C265.254,36 276,46.746 276,60Z" style="fill:rgb(210,110,40);fill-rule:nonzero;"/>
                            <path d="M214,42C214,51.941 205.941,60 196,60C186.059,60 178,51.941 178,42C178,32.059 186.059,24 196,24C205.941,24 214,32.059 214,42Z" style="fill:rgb(210,110,40);fill-rule:nonzero;"/>
                            <path d="M312,102C312,111.941 303.941,120 294,120C284.059,120 276,111.941 276,102C276,92.059 284.059,84 294,84C303.941,84 312,92.059 312,102Z" style="fill:rgb(210,110,40);fill-rule:nonzero;"/>
                            <path d="M304,138C304,147.941 295.941,156 286,156C276.059,156 268,147.941 268,138C268,128.059 276.059,120 286,120C295.941,120 304,128.059 304,138Z" style="fill:rgb(210,110,40);fill-rule:nonzero;"/>
                            <path d="M336,162C336,175.254 325.254,186 312,186C298.746,186 288,175.254 288,162C288,148.746 298.746,138 312,138C325.254,138 336,148.746 336,162Z" style="fill:rgb(210,110,40);fill-rule:nonzero;"/>
                            <path d="M241,72C241,78.629 235.629,84 229,84C222.371,84 217,78.629 217,72C217,65.371 222.371,60 229,60C235.629,60 241,65.371 241,72Z" style="fill:rgb(242,138,57);fill-rule:nonzero;"/>
                            <path d="M194,62C194,68.629 188.629,74 182,74C175.371,74 170,68.629 170,62C170,55.371 175.371,50 182,50C188.629,50 194,55.371 194,62Z" style="fill:rgb(242,138,57);fill-rule:nonzero;"/>
                            <path d="M288,72C288,78.629 282.629,84 276,84C269.371,84 264,78.629 264,72C264,65.371 269.371,60 276,60C282.629,60 288,65.371 288,72Z" style="fill:rgb(242,138,57);fill-rule:nonzero;"/>
                            <path d="M276,96C276,102.629 270.629,108 264,108C257.371,108 252,102.629 252,96C252,89.371 257.371,84 264,84C270.629,84 276,89.371 276,96Z" style="fill:rgb(242,138,57);fill-rule:nonzero;"/>
                            <path d="M312,120C312,126.629 306.629,132 300,132C293.371,132 288,126.629 288,120C288,113.371 293.371,108 300,108C306.629,108 312,113.371 312,120Z" style="fill:rgb(242,138,57);fill-rule:nonzero;"/>
                            <path d="M204,84C204,90.629 198.629,96 192,96C185.371,96 180,90.629 180,84C180,77.371 185.371,72 192,72C198.629,72 204,77.371 204,84Z" style="fill:rgb(242,138,57);fill-rule:nonzero;"/>
                            <path d="M300,174C300,180.629 294.629,186 288,186C281.371,186 276,180.629 276,174C276,167.371 281.371,162 288,162C294.629,162 300,167.371 300,174Z" style="fill:rgb(242,138,57);fill-rule:nonzero;"/>
                            <path d="M336,168C336,174.629 330.629,180 324,180C317.371,180 312,174.629 312,168C312,161.371 317.371,156 324,156C330.629,156 336,161.371 336,168Z" style="fill:rgb(242,138,57);fill-rule:nonzero;"/>
                            <path d="M324,138C324,141.312 321.312,144 318,144C314.688,144 312,141.312 312,138C312,134.688 314.688,132 318,132C321.312,132 324,134.688 324,138Z" style="fill:rgb(242,138,57);fill-rule:nonzero;"/>
                            <path d="M276,126C276,129.312 273.312,132 270,132C266.688,132 264,129.312 264,126C264,122.688 266.688,120 270,120C273.312,120 276,122.688 276,126Z" style="fill:rgb(242,138,57);fill-rule:nonzero;"/>
                            <path d="M240,102C240,105.312 237.312,108 234,108C230.688,108 228,105.312 228,102C228,98.688 230.688,96 234,96C237.312,96 240,98.688 240,102Z" style="fill:rgb(242,138,57);fill-rule:nonzero;"/>
                            <path d="M192,42C192,45.312 189.312,48 186,48C182.688,48 180,45.312 180,42C180,38.688 182.688,36 186,36C189.312,36 192,38.688 192,42Z" style="fill:rgb(242,138,57);fill-rule:nonzero;"/>
                            <path d="M180,24L180,180L24,180C24,93.844 93.844,24 180,24Z" style="fill:rgb(75,140,65);fill-rule:nonzero;"/>
                            <path d="M108,166C108,179.254 97.254,190 84,190C70.746,190 60,179.254 60,166C60,152.746 70.746,142 84,142C97.254,142 108,152.746 108,166Z" style="fill:rgb(105,160,65);fill-rule:nonzero;"/>
                            <path d="M132,108C132,121.254 121.254,132 108,132C94.746,132 84,121.254 84,108C84,94.746 94.746,84 108,84C121.254,84 132,94.746 132,108Z" style="fill:rgb(105,160,65);fill-rule:nonzero;"/>
                            <path d="M88,110C88,123.254 77.254,134 64,134C50.746,134 40,123.254 40,110C40,96.746 50.746,86 64,86C77.254,86 88,96.746 88,110Z" style="fill:rgb(105,160,65);fill-rule:nonzero;"/>
                            <path d="M60,166C60,175.941 51.941,184 42,184C32.059,184 24,175.941 24,166C24,156.059 32.059,148 42,148C51.941,148 60,156.059 60,166Z" style="fill:rgb(105,160,65);fill-rule:nonzero;"/>
                            <path d="M118,62C118,71.941 109.941,80 100,80C90.059,80 82,71.941 82,62C82,52.059 90.059,44 100,44C109.941,44 118,52.059 118,62Z" style="fill:rgb(105,160,65);fill-rule:nonzero;"/>
                            <path d="M156,74C156,83.941 147.941,92 138,92C128.059,92 120,83.941 120,74C120,64.059 128.059,56 138,56C147.941,56 156,64.059 156,74Z" style="fill:rgb(105,160,65);fill-rule:nonzero;"/>
                            <path d="M186,48C186,61.254 175.254,72 162,72C148.746,72 138,61.254 138,48C138,34.746 148.746,24 162,24C175.254,24 186,34.746 186,48Z" style="fill:rgb(105,160,65);fill-rule:nonzero;"/>
                            <path d="M84,131C84,137.629 78.629,143 72,143C65.371,143 60,137.629 60,131C60,124.371 65.371,119 72,119C78.629,119 84,124.371 84,131Z" style="fill:rgb(145,185,69);fill-rule:nonzero;"/>
                            <path d="M58,138C58,144.629 52.628,150 46,150C39.371,150 34,144.629 34,138C34,131.371 39.371,126 46,126C52.628,126 58,131.371 58,138Z" style="fill:rgb(105,160,65);fill-rule:nonzero;"/>
                            <path d="M70,174C70,180.629 64.629,186 58,186C51.371,186 46,180.629 46,174C46,167.371 51.371,162 58,162C64.629,162 70,167.371 70,174Z" style="fill:rgb(105,160,65);fill-rule:nonzero;"/>
                            <path d="M84,84C84,90.629 78.629,96 72,96C65.371,96 60,90.629 60,84C60,77.371 65.371,72 72,72C78.629,72 84,77.371 84,84Z" style="fill:rgb(145,185,69);fill-rule:nonzero;"/>
                            <path d="M178,94C178,100.629 172.629,106 166,106C159.371,106 154,100.629 154,94C154,87.371 159.371,82 166,82C172.629,82 178,87.371 178,94Z" style="fill:rgb(145,185,69);fill-rule:nonzero;"/>
                            <path d="M108,96C108,102.629 102.629,108 96,108C89.371,108 84,102.629 84,96C84,89.371 89.371,84 96,84C102.629,84 108,89.371 108,96Z" style="fill:rgb(105,160,65);fill-rule:nonzero;"/>
                            <path d="M132,60C132,66.629 126.629,72 120,72C113.371,72 108,66.629 108,60C108,53.371 113.371,48 120,48C126.629,48 132,53.371 132,60Z" style="fill:rgb(145,185,69);fill-rule:nonzero;"/>
                            <path d="M96,168C96,174.629 90.629,180 84,180C77.371,180 72,174.629 72,168C72,161.371 77.371,156 84,156C90.629,156 96,161.371 96,168Z" style="fill:rgb(145,185,69);fill-rule:nonzero;"/>
                            <path d="M156,80C156,86.629 150.629,92 144,92C137.371,92 132,86.629 132,80C132,73.371 137.371,68 144,68C150.629,68 156,73.371 156,80Z" style="fill:rgb(105,160,65);fill-rule:nonzero;"/>
                            <path d="M186,36C186,42.629 180.629,48 174,48C167.371,48 162,42.629 162,36C162,29.371 167.371,24 174,24C180.629,24 186,29.371 186,36Z" style="fill:rgb(145,185,69);fill-rule:nonzero;"/>
                            <path d="M144,42C144,45.312 141.312,48 138,48C134.688,48 132,45.312 132,42C132,38.688 134.688,36 138,36C141.312,36 144,38.688 144,42Z" style="fill:rgb(145,185,69);fill-rule:nonzero;"/>
                            <path d="M132,90C132,93.312 129.312,96 126,96C122.688,96 120,93.312 120,90C120,86.688 122.688,84 126,84C129.312,84 132,86.688 132,90Z" style="fill:rgb(145,185,69);fill-rule:nonzero;"/>
                            <path d="M108,126C108,129.312 105.312,132 102,132C98.688,132 96,129.312 96,126C96,122.688 98.688,120 102,120C105.312,120 108,122.688 108,126Z" style="fill:rgb(145,185,69);fill-rule:nonzero;"/>
                            <path d="M48,174C48,177.312 45.312,180 42,180C38.688,180 36,177.312 36,174C36,170.688 38.688,168 42,168C45.312,168 48,170.688 48,174Z" style="fill:rgb(145,185,69);fill-rule:nonzero;"/>
                            <path d="M288,192C288,245.02 245.019,288 192,288C138.98,288 96,245.02 96,192C96,138.98 138.98,96 192,96C245.019,96 288,138.98 288,192Z" style="fill:rgb(215,230,240);fill-rule:nonzero;"/>
                            <path d="M102,198C105.312,198 108,195.312 108,192C108,145.684 145.684,108 192,108C195.312,108 198,105.312 198,102C198,98.688 195.312,96 192,96C138.98,96 96,138.98 96,192C96,195.312 98.688,198 102,198Z" style="fill:white;fill-rule:nonzero;"/>
                            <path d="M228,180C228,206.508 206.508,228 180,228C153.492,228 132,206.508 132,180C132,153.492 153.492,132 180,132C206.508,132 228,153.492 228,180Z" style="fill:rgb(250,160,25);fill-rule:nonzero;"/>
                            <path d="M138,186C141.312,186 144,183.312 144,180C144,160.148 160.148,144 180,144C183.312,144 186,141.312 186,138C186,134.688 183.312,132 180,132C153.492,132 132,153.492 132,180C132,183.312 134.688,186 138,186Z" style="fill:rgb(255,210,5);fill-rule:nonzero;"/>
                            <path d="M174,52C174,58.629 168.629,64 162,64C155.371,64 150,58.629 150,52C150,45.371 155.371,40 162,40C168.629,40 174,45.371 174,52Z" style="fill:rgb(105,160,65);fill-rule:nonzero;"/>
                            <path d="M118,74C118,80.629 112.629,86 106,86C99.371,86 94,80.629 94,74C94,67.371 99.371,62 106,62C112.629,62 118,67.371 118,74Z" style="fill:rgb(105,160,65);fill-rule:nonzero;"/>
                            <path d="M88,118C88,124.629 82.629,130 76,130C69.371,130 64,124.629 64,118C64,111.371 69.371,106 76,106C82.629,106 88,111.371 88,118Z" style="fill:rgb(105,160,65);fill-rule:nonzero;"/>
                            <path d="M188,80C188,86.629 182.629,92 176,92C169.371,92 164,86.629 164,80C164,73.371 169.371,68 176,68C182.629,68 188,73.371 188,80Z" style="fill:rgb(105,160,65);fill-rule:nonzero;"/>
                            <path d="M324,210C324,213.312 321.312,216 318,216C314.688,216 312,213.312 312,210C312,206.688 314.688,204 318,204C321.312,204 324,206.688 324,210Z" style="fill:rgb(215,230,240);fill-rule:nonzero;"/>
                            <path d="M312,234C312,237.312 309.312,240 306,240C302.688,240 300,237.312 300,234C300,230.688 302.688,228 306,228C309.312,228 312,230.688 312,234Z" style="fill:rgb(215,230,240);fill-rule:nonzero;"/>
                            <path d="M204,306C204,309.312 201.312,312 198,312C194.688,312 192,309.312 192,306C192,302.688 194.688,300 198,300C201.312,300 204,302.688 204,306Z" style="fill:rgb(215,230,240);fill-rule:nonzero;"/>
                            <path d="M264,294C264,297.312 261.312,300 258,300C254.688,300 252,297.312 252,294C252,290.688 254.688,288 258,288C261.312,288 264,290.688 264,294Z" style="fill:rgb(215,230,240);fill-rule:nonzero;"/>
                            <path d="M306,204C306,207.312 303.312,210 300,210C296.688,210 294,207.312 294,204C294,200.688 296.688,198 300,198C303.312,198 306,200.688 306,204Z" style="fill:rgb(215,230,240);fill-rule:nonzero;"/>
                            <path d="M240.102,123.004C240.102,124.66 238.758,126.004 237.102,126.004C235.445,126.004 234.102,124.66 234.102,123.004C234.102,121.348 235.445,120.004 237.102,120.004C238.758,120.004 240.102,121.348 240.102,123.004Z" style="fill:rgb(95,170,70);fill-rule:nonzero;"/>
                            <path d="M214.473,139.191C214.473,140.848 213.129,142.191 211.473,142.191C209.812,142.191 208.473,140.848 208.473,139.191C208.473,137.535 209.812,136.191 211.473,136.191C213.129,136.191 214.473,137.535 214.473,139.191Z" style="fill:rgb(95,170,70);fill-rule:nonzero;"/>
                            <path d="M189.371,102.242C189.371,103.898 188.027,105.242 186.371,105.242C184.715,105.242 183.371,103.898 183.371,102.242C183.371,100.582 184.715,99.242 186.371,99.242C188.027,99.242 189.371,100.582 189.371,102.242Z" style="fill:rgb(95,170,70);fill-rule:nonzero;"/>
                            <path d="M149.695,134.469C149.695,136.125 148.355,137.469 146.695,137.469C145.039,137.469 143.695,136.125 143.695,134.469C143.695,132.812 145.039,131.469 146.695,131.469C148.355,131.469 149.695,132.812 149.695,134.469Z" style="fill:rgb(95,170,70);fill-rule:nonzero;"/>
                            <path d="M130.562,123.359C130.562,125.02 129.219,126.359 127.562,126.359C125.906,126.359 124.562,125.02 124.562,123.359C124.562,121.703 125.906,120.359 127.562,120.359C129.219,120.359 130.562,121.703 130.562,123.359Z" style="fill:rgb(95,170,70);fill-rule:nonzero;"/>
                            <path d="M173.406,105.535C173.406,107.191 172.062,108.535 170.406,108.535C168.75,108.535 167.406,107.191 167.406,105.535C167.406,103.879 168.75,102.535 170.406,102.535C172.062,102.535 173.406,103.879 173.406,105.535Z" style="fill:rgb(95,170,70);fill-rule:nonzero;"/>
                            <path d="M132.449,204.668C132.449,206.328 131.105,207.668 129.449,207.668C127.793,207.668 126.449,206.328 126.449,204.668C126.449,203.012 127.793,201.668 129.449,201.668C131.105,201.668 132.449,203.012 132.449,204.668Z" style="fill:rgb(95,170,70);fill-rule:nonzero;"/>
                            <path d="M106,194.461C106,196.117 104.656,197.461 103,197.461C101.344,197.461 100,196.117 100,194.461C100,192.801 101.344,191.461 103,191.461C104.656,191.461 106,192.801 106,194.461Z" style="fill:rgb(95,170,70);fill-rule:nonzero;"/>
                            <path d="M125.785,153.852C125.785,155.512 124.441,156.852 122.785,156.852C121.129,156.852 119.785,155.512 119.785,153.852C119.785,152.195 121.129,150.852 122.785,150.852C124.441,150.852 125.785,152.195 125.785,153.852Z" style="fill:rgb(95,170,70);fill-rule:nonzero;"/>
                            <path d="M228.41,213.977C228.41,215.637 227.07,216.977 225.41,216.977C223.754,216.977 222.41,215.637 222.41,213.977C222.41,212.32 223.754,210.977 225.41,210.977C227.07,210.977 228.41,212.32 228.41,213.977Z" style="fill:rgb(95,170,70);fill-rule:nonzero;"/>
                            <path d="M190.594,193.418C190.594,195.078 189.25,196.418 187.594,196.418C185.938,196.418 184.594,195.078 184.594,193.418C184.594,191.762 185.938,190.418 187.594,190.418C189.25,190.418 190.594,191.762 190.594,193.418Z" style="fill:rgb(95,170,70);fill-rule:nonzero;"/>
                            <path d="M196.785,163.113C196.785,164.77 195.441,166.113 193.785,166.113C192.125,166.113 190.785,164.77 190.785,163.113C190.785,161.453 192.125,160.113 193.785,160.113C195.441,160.113 196.785,161.453 196.785,163.113Z" style="fill:rgb(95,170,70);fill-rule:nonzero;"/>
                            <path d="M264.406,199.582C264.406,201.238 263.062,202.582 261.406,202.582C259.75,202.582 258.406,201.238 258.406,199.582C258.406,197.926 259.75,196.582 261.406,196.582C263.062,196.582 264.406,197.926 264.406,199.582Z" style="fill:rgb(95,170,70);fill-rule:nonzero;"/>
                            <path d="M225.594,172.949C225.594,174.605 224.25,175.949 222.594,175.949C220.938,175.949 219.594,174.605 219.594,172.949C219.594,171.293 220.938,169.949 222.594,169.949C224.25,169.949 225.594,171.293 225.594,172.949Z" style="fill:rgb(95,170,70);fill-rule:nonzero;"/>
                            <path d="M258.668,157.969C258.668,159.625 257.328,160.969 255.668,160.969C254.012,160.969 252.668,159.625 252.668,157.969C252.668,156.312 254.012,154.969 255.668,154.969C257.328,154.969 258.668,156.312 258.668,157.969Z" style="fill:rgb(95,170,70);fill-rule:nonzero;"/>
                            <path d="M144.312,253C144.312,254.656 142.969,256 141.312,256C139.656,256 138.312,254.656 138.312,253C138.312,251.344 139.656,250 141.312,250C142.969,250 144.312,251.344 144.312,253Z" style="fill:rgb(95,170,70);fill-rule:nonzero;"/>
                            <path d="M126.141,241.559C126.141,243.215 124.797,244.559 123.141,244.559C121.484,244.559 120.141,243.215 120.141,241.559C120.141,239.902 121.484,238.559 123.141,238.559C124.797,238.559 126.141,239.902 126.141,241.559Z" style="fill:rgb(95,170,70);fill-rule:nonzero;"/>
                            <path d="M160.84,198.652C160.84,200.309 159.496,201.652 157.84,201.652C156.18,201.652 154.84,200.309 154.84,198.652C154.84,196.996 156.18,195.652 157.84,195.652C159.496,195.652 160.84,196.996 160.84,198.652Z" style="fill:rgb(95,170,70);fill-rule:nonzero;"/>
                            <path d="M203.086,250.918C203.086,252.574 201.742,253.918 200.086,253.918C198.43,253.918 197.086,252.574 197.086,250.918C197.086,249.258 198.43,247.918 200.086,247.918C201.742,247.918 203.086,249.258 203.086,250.918Z" style="fill:rgb(95,170,70);fill-rule:nonzero;"/>
                            <path d="M208.168,231.922C208.168,233.578 206.824,234.922 205.168,234.922C203.512,234.922 202.168,233.578 202.168,231.922C202.168,230.266 203.512,228.922 205.168,228.922C206.824,228.922 208.168,230.266 208.168,231.922Z" style="fill:rgb(95,170,70);fill-rule:nonzero;"/>
                            <path d="M238.848,235.934C238.848,237.59 237.504,238.934 235.848,238.934C234.188,238.934 232.848,237.59 232.848,235.934C232.848,234.277 234.188,232.934 235.848,232.934C237.504,232.934 238.848,234.277 238.848,235.934Z" style="fill:rgb(95,170,70);fill-rule:nonzero;"/>
                        </g>
                    </g>
                </g>
            </g>
        </g>
    </g>
</svg>
