<?xml version="1.0" encoding="UTF-8" standalone="no"?>
<!DOCTYPE svg PUBLIC "-//W3C//DTD SVG 1.1//EN" "http://www.w3.org/Graphics/SVG/1.1/DTD/svg11.dtd">
<svg width="100%" height="100%" viewBox="0 0 41 41" version="1.1" xmlns="http://www.w3.org/2000/svg" xmlns:xlink="http://www.w3.org/1999/xlink" xml:space="preserve" xmlns:serif="http://www.serif.com/" style="fill-rule:evenodd;clip-rule:evenodd;stroke-linejoin:round;stroke-miterlimit:2;">
    <g transform="matrix(1,0,0,1,-5017,-596)">
        <g transform="matrix(1.62961,0,0,1.75322,-2950.67,16)">
            <g id="Search-Icon" serif:id="Search Icon" transform="matrix(1.02329,0,0,0.951148,4479.34,-2252.34)">
                <path d="M424.544,2739.55C423.954,2740.14 422.997,2740.14 422.406,2739.55L417.77,2734.91C416.019,2736.22 413.854,2737 411.5,2737C405.701,2737 401,2732.3 401,2726.5C401,2720.7 405.701,2716 411.5,2716C417.299,2716 422,2720.7 422,2726.5C422,2728.85 421.216,2731.02 419.908,2732.77L424.544,2737.41C425.135,2738 425.135,2738.95 424.544,2739.55ZM411.5,2719C407.358,2719 404,2722.36 404,2726.5C404,2730.64 407.358,2734 411.5,2734C415.642,2734 419,2730.64 419,2726.5C419,2722.36 415.642,2719 411.5,2719Z" style="fill:rgb(1,105,56);"/>
            </g>
        </g>
    </g>
</svg>
