<?xml version="1.0" encoding="UTF-8" standalone="no"?>
<!DOCTYPE svg PUBLIC "-//W3C//DTD SVG 1.1//EN" "http://www.w3.org/Graphics/SVG/1.1/DTD/svg11.dtd">
<svg width="100%" height="100%" viewBox="0 0 166 166" version="1.1" xmlns="http://www.w3.org/2000/svg" xmlns:xlink="http://www.w3.org/1999/xlink" xml:space="preserve" xmlns:serif="http://www.serif.com/" style="fill-rule:evenodd;clip-rule:evenodd;stroke-linejoin:round;stroke-miterlimit:2;">
    <g transform="matrix(1,0,0,1,-5592,-880)">
        <g transform="matrix(1.62961,0,0,1.75322,-2950.67,16)">
            <g transform="matrix(1.1,0,0,1.01852,-521.458,84.8161)">
                <g id="Snack">
                    <g>
                        <g transform="matrix(0.581246,0,0,0.583488,2384.41,64.2952)">
                            <circle cx="4992.03" cy="655.544" r="79.18" style="fill:rgb(90,215,255);"/>
                        </g>
                        <g transform="matrix(0.204548,0,0,0.205337,5254.5,409.837)">
                            <path d="M312,156C312,69.844 242.156,0 156,0C69.844,0 0,69.844 0,156L0,204C0,290.156 69.844,360 156,360C242.156,360 312,290.156 312,204L312,156Z" style="fill:rgb(245,135,30);fill-rule:nonzero;"/>
                            <path d="M312,156C312,69.844 242.156,0 156,0C69.844,0 0,69.844 0,156L0,178C0,264.156 69.844,334 156,334C242.156,334 312,264.156 312,178L312,156Z" style="fill:rgb(250,160,25);fill-rule:nonzero;"/>
                            <path d="M312,156C312,242.156 242.156,312 156,312C69.844,312 0,242.156 0,156C0,69.844 69.844,0 156,0C242.156,0 312,69.844 312,156Z" style="fill:rgb(140,60,20);fill-rule:nonzero;"/>
                            <path d="M12,168C5.371,168 0,162.629 0,156C0,69.98 69.98,0 156,0C162.629,0 168,5.371 168,12C168,18.629 162.629,24 156,24C83.215,24 24,83.215 24,156C24,162.629 18.629,168 12,168Z" style="fill:rgb(210,110,40);fill-rule:nonzero;"/>
                            <path d="M188,156C188,173.672 173.672,188 156,188C138.328,188 124,173.672 124,156C124,138.328 138.328,124 156,124C173.672,124 188,138.328 188,156Z" style="fill:rgb(245,135,30);fill-rule:nonzero;"/>
                            <path d="M156,144C170.18,144 182.207,153.223 186.406,166C187.441,162.855 188,159.492 188,156C188,138.328 173.672,124 156,124C138.328,124 124,138.328 124,156C124,159.492 124.559,162.855 125.594,166C129.793,153.223 141.82,144 156,144Z" style="fill:rgb(250,160,25);fill-rule:nonzero;"/>
                            <path d="M156,87C154.344,87 153,85.656 153,84L153,66C153,64.344 154.344,63 156,63C157.656,63 159,64.344 159,66L159,84C159,85.656 157.656,87 156,87Z" style="fill:rgb(240,75,55);fill-rule:nonzero;"/>
                            <path d="M210,63L192,63C190.344,63 189,61.656 189,60C189,58.344 190.344,57 192,57L210,57C211.656,57 213,58.344 213,60C213,61.656 211.656,63 210,63Z" style="fill:rgb(145,200,60);fill-rule:nonzero;"/>
                            <path d="M192,105C191.23,105 190.465,104.707 189.879,104.121L177.879,92.121C176.707,90.949 176.707,89.051 177.879,87.879C179.051,86.707 180.949,86.707 182.121,87.879L194.121,99.879C195.293,101.051 195.293,102.949 194.121,104.121C193.535,104.707 192.77,105 192,105Z" style="fill:rgb(245,130,110);fill-rule:nonzero;"/>
                            <path d="M270,87C269.23,87 268.465,86.707 267.879,86.121L255.879,74.121C254.707,72.949 254.707,71.051 255.879,69.879C257.051,68.707 258.949,68.707 260.121,69.879L272.121,81.879C273.293,83.051 273.293,84.949 272.121,86.121C271.535,86.707 270.77,87 270,87Z" style="fill:rgb(245,130,110);fill-rule:nonzero;"/>
                            <path d="M186,45C185.23,45 184.465,44.707 183.879,44.121L171.879,32.121C170.707,30.949 170.707,29.051 171.879,27.879C173.051,26.707 174.949,26.707 176.121,27.879L188.121,39.879C189.293,41.051 189.293,42.949 188.121,44.121C187.535,44.707 186.77,45 186,45Z" style="fill:rgb(35,170,230);fill-rule:nonzero;"/>
                            <path d="M222,93C221.23,93 220.465,92.707 219.879,92.121C218.707,90.949 218.707,89.051 219.879,87.879L231.879,75.879C233.051,74.707 234.949,74.707 236.121,75.879C237.293,77.051 237.293,78.949 236.121,80.121L224.121,92.121C223.535,92.707 222.769,93 222,93Z" style="fill:rgb(240,75,55);fill-rule:nonzero;"/>
                            <path d="M210,135C208.344,135 207,133.656 207,132L207,114C207,112.344 208.344,111 210,111C211.656,111 213,112.344 213,114L213,132C213,133.656 211.656,135 210,135Z" style="fill:rgb(145,200,60);fill-rule:nonzero;"/>
                            <path d="M264,111L246,111C244.344,111 243,109.656 243,108C243,106.344 244.344,105 246,105L264,105C265.656,105 267,106.344 267,108C267,109.656 265.656,111 264,111Z" style="fill:rgb(35,170,230);fill-rule:nonzero;"/>
                            <path d="M246,153C245.23,153 244.465,152.707 243.879,152.121L231.879,140.121C230.707,138.949 230.707,137.051 231.879,135.879C233.051,134.707 234.949,134.707 236.121,135.879L248.121,147.879C249.293,149.051 249.293,150.949 248.121,152.121C247.535,152.707 246.77,153 246,153Z" style="fill:rgb(255,210,5);fill-rule:nonzero;"/>
                            <path d="M216,291C215.23,291 214.465,290.707 213.879,290.121L201.879,278.121C200.707,276.949 200.707,275.051 201.879,273.879C203.051,272.707 204.949,272.707 206.121,273.879L218.121,285.879C219.293,287.051 219.293,288.949 218.121,290.121C217.535,290.707 216.77,291 216,291Z" style="fill:rgb(145,200,60);fill-rule:nonzero;"/>
                            <path d="M276,141C275.23,141 274.465,140.707 273.879,140.121C272.707,138.949 272.707,137.051 273.879,135.879L285.879,123.879C287.051,122.707 288.949,122.707 290.121,123.879C291.293,125.051 291.293,126.949 290.121,128.121L278.121,140.121C277.535,140.707 276.77,141 276,141Z" style="fill:rgb(245,130,110);fill-rule:nonzero;"/>
                            <path d="M216,183C214.344,183 213,181.656 213,180L213,162C213,160.344 214.344,159 216,159C217.656,159 219,160.344 219,162L219,180C219,181.656 217.656,183 216,183Z" style="fill:rgb(240,75,55);fill-rule:nonzero;"/>
                            <path d="M228,49C226.344,49 225,47.656 225,46L225,28C225,26.344 226.344,25 228,25C229.656,25 231,26.344 231,28L231,46C231,47.656 229.656,49 228,49Z" style="fill:rgb(255,210,5);fill-rule:nonzero;"/>
                            <path d="M264,171L246,171C244.344,171 243,169.656 243,168C243,166.344 244.344,165 246,165L264,165C265.656,165 267,166.344 267,168C267,169.656 265.656,171 264,171Z" style="fill:rgb(145,200,60);fill-rule:nonzero;"/>
                            <path d="M252,213C251.23,213 250.465,212.707 249.879,212.121L237.879,200.121C236.707,198.949 236.707,197.051 237.879,195.879C239.051,194.707 240.949,194.707 242.121,195.879L254.121,207.879C255.293,209.051 255.293,210.949 254.121,212.121C253.535,212.707 252.77,213 252,213Z" style="fill:rgb(145,200,60);fill-rule:nonzero;"/>
                            <path d="M102,57C101.23,57 100.465,56.707 99.879,56.121L87.879,44.121C86.707,42.949 86.707,41.051 87.879,39.879C89.051,38.707 90.949,38.707 92.121,39.879L104.121,51.879C105.293,53.051 105.293,54.949 104.121,56.121C103.535,56.707 102.77,57 102,57Z" style="fill:rgb(245,130,110);fill-rule:nonzero;"/>
                            <path d="M276,201C275.23,201 274.465,200.707 273.879,200.121C272.707,198.949 272.707,197.051 273.879,195.879L285.879,183.879C287.051,182.707 288.949,182.707 290.121,183.879C291.293,185.051 291.293,186.949 290.121,188.121L278.121,200.121C277.535,200.707 276.77,201 276,201Z" style="fill:rgb(35,170,230);fill-rule:nonzero;"/>
                            <path d="M168,243C166.344,243 165,241.656 165,240L165,222C165,220.344 166.344,219 168,219C169.656,219 171,220.344 171,222L171,240C171,241.656 169.656,243 168,243Z" style="fill:rgb(145,200,60);fill-rule:nonzero;"/>
                            <path d="M222,219L204,219C202.344,219 201,217.656 201,216C201,214.344 202.344,213 204,213L222,213C223.656,213 225,214.344 225,216C225,217.656 223.656,219 222,219Z" style="fill:rgb(35,170,230);fill-rule:nonzero;"/>
                            <path d="M204,261C203.23,261 202.465,260.707 201.879,260.121L189.879,248.121C188.707,246.949 188.707,245.051 189.879,243.879C191.051,242.707 192.949,242.707 194.121,243.879L206.121,255.879C207.293,257.051 207.293,258.949 206.121,260.121C205.535,260.707 204.77,261 204,261Z" style="fill:rgb(240,75,55);fill-rule:nonzero;"/>
                            <path d="M234,249C233.23,249 232.465,248.707 231.879,248.121C230.707,246.949 230.707,245.051 231.879,243.879L243.879,231.879C245.051,230.707 246.949,230.707 248.121,231.879C249.293,233.051 249.293,234.949 248.121,236.121L236.121,248.121C235.535,248.707 234.77,249 234,249Z" style="fill:rgb(255,210,5);fill-rule:nonzero;"/>
                            <path d="M66,219C64.344,219 63,217.656 63,216L63,198C63,196.344 64.344,195 66,195C67.656,195 69,196.344 69,198L69,216C69,217.656 67.656,219 66,219Z" style="fill:rgb(240,75,55);fill-rule:nonzero;"/>
                            <path d="M120,195L102,195C100.344,195 99,193.656 99,192C99,190.344 100.344,189 102,189L120,189C121.656,189 123,190.344 123,192C123,193.656 121.656,195 120,195Z" style="fill:rgb(240,75,55);fill-rule:nonzero;"/>
                            <path d="M42,189L24,189C22.344,189 21,187.656 21,186C21,184.344 22.344,183 24,183L42,183C43.656,183 45,184.344 45,186C45,187.656 43.656,189 42,189Z" style="fill:rgb(245,130,110);fill-rule:nonzero;"/>
                            <path d="M102,237C101.23,237 100.465,236.707 99.879,236.121L87.879,224.121C86.707,222.949 86.707,221.051 87.879,219.879C89.051,218.707 90.949,218.707 92.121,219.879L104.121,231.879C105.293,233.051 105.293,234.949 104.121,236.121C103.535,236.707 102.77,237 102,237Z" style="fill:rgb(145,200,60);fill-rule:nonzero;"/>
                            <path d="M132,225C131.23,225 130.465,224.707 129.879,224.121C128.707,222.949 128.707,221.051 129.879,219.879L141.879,207.879C143.051,206.707 144.949,206.707 146.121,207.879C147.293,209.051 147.293,210.949 146.121,212.121L134.121,224.121C133.535,224.707 132.77,225 132,225Z" style="fill:rgb(255,210,5);fill-rule:nonzero;"/>
                            <path d="M102,279C100.344,279 99,277.656 99,276L99,258C99,256.344 100.344,255 102,255C103.656,255 105,256.344 105,258L105,276C105,277.656 103.656,279 102,279Z" style="fill:rgb(35,170,230);fill-rule:nonzero;"/>
                            <path d="M150,255L132,255C130.344,255 129,253.656 129,252C129,250.344 130.344,249 132,249L150,249C151.656,249 153,250.344 153,252C153,253.656 151.656,255 150,255Z" style="fill:rgb(240,75,55);fill-rule:nonzero;"/>
                            <path d="M192,195L174,195C172.344,195 171,193.656 171,192C171,190.344 172.344,189 174,189L192,189C193.656,189 195,190.344 195,192C195,193.656 193.656,195 192,195Z" style="fill:rgb(245,130,110);fill-rule:nonzero;"/>
                            <path d="M138,297C137.23,297 136.465,296.707 135.879,296.121L123.879,284.121C122.707,282.949 122.707,281.051 123.879,279.879C125.051,278.707 126.949,278.707 128.121,279.879L140.121,291.879C141.293,293.051 141.293,294.949 140.121,296.121C139.535,296.707 138.77,297 138,297Z" style="fill:rgb(145,200,60);fill-rule:nonzero;"/>
                            <path d="M168,285C167.23,285 166.465,284.707 165.879,284.121C164.707,282.949 164.707,281.051 165.879,279.879L177.879,267.879C179.051,266.707 180.949,266.707 182.121,267.879C183.293,269.051 183.293,270.949 182.121,272.121L170.121,284.121C169.535,284.707 168.77,285 168,285Z" style="fill:rgb(35,170,230);fill-rule:nonzero;"/>
                            <path d="M36,159C34.344,159 33,157.656 33,156L33,138C33,136.344 34.344,135 36,135C37.656,135 39,136.344 39,138L39,156C39,157.656 37.656,159 36,159Z" style="fill:rgb(240,75,55);fill-rule:nonzero;"/>
                            <path d="M90,141L72,141C70.344,141 69,139.656 69,138C69,136.344 70.344,135 72,135L90,135C91.656,135 93,136.344 93,138C93,139.656 91.656,141 90,141Z" style="fill:rgb(145,200,60);fill-rule:nonzero;"/>
                            <path d="M138,27L120,27C118.344,27 117,25.656 117,24C117,22.344 118.344,21 120,21L138,21C139.656,21 141,22.344 141,24C141,25.656 139.656,27 138,27Z" style="fill:rgb(255,210,5);fill-rule:nonzero;"/>
                            <path d="M42,111L24,111C22.344,111 21,109.656 21,108C21,106.344 22.344,105 24,105L42,105C43.656,105 45,106.344 45,108C45,109.656 43.656,111 42,111Z" style="fill:rgb(35,170,230);fill-rule:nonzero;"/>
                            <path d="M72,177C71.23,177 70.465,176.707 69.879,176.121L57.879,164.121C56.707,162.949 56.707,161.051 57.879,159.879C59.051,158.707 60.949,158.707 62.121,159.879L74.121,171.879C75.293,173.051 75.293,174.949 74.121,176.121C73.535,176.707 72.77,177 72,177Z" style="fill:rgb(145,200,60);fill-rule:nonzero;"/>
                            <path d="M72,255C71.23,255 70.465,254.707 69.879,254.121L57.879,242.121C56.707,240.949 56.707,239.051 57.879,237.879C59.051,236.707 60.949,236.707 62.121,237.879L74.121,249.879C75.293,251.051 75.293,252.949 74.121,254.121C73.535,254.707 72.77,255 72,255Z" style="fill:rgb(255,210,5);fill-rule:nonzero;"/>
                            <path d="M102,165C101.23,165 100.465,164.707 99.879,164.121C98.707,162.949 98.707,161.051 99.879,159.879L111.879,147.879C113.051,146.707 114.949,146.707 116.121,147.879C117.293,149.051 117.293,150.949 116.121,152.121L104.121,164.121C103.535,164.707 102.77,165 102,165Z" style="fill:rgb(35,170,230);fill-rule:nonzero;"/>
                            <path d="M36,219C35.23,219 34.465,218.707 33.879,218.121C32.707,216.949 32.707,215.051 33.879,213.879L45.879,201.879C47.051,200.707 48.949,200.707 50.121,201.879C51.293,203.051 51.293,204.949 50.121,206.121L38.121,218.121C37.535,218.707 36.77,219 36,219Z" style="fill:rgb(145,200,60);fill-rule:nonzero;"/>
                            <path d="M66,105C64.344,105 63,103.656 63,102L63,84C63,82.344 64.344,81 66,81C67.656,81 69,82.344 69,84L69,102C69,103.656 67.656,105 66,105Z" style="fill:rgb(240,75,55);fill-rule:nonzero;"/>
                            <path d="M120,81L102,81C100.344,81 99,79.656 99,78C99,76.344 100.344,75 102,75L120,75C121.656,75 123,76.344 123,78C123,79.656 121.656,81 120,81Z" style="fill:rgb(35,170,230);fill-rule:nonzero;"/>
                            <path d="M102,123C101.23,123 100.465,122.707 99.879,122.121L87.879,110.121C86.707,108.949 86.707,107.051 87.879,105.879C89.051,104.707 90.949,104.707 92.121,105.879L104.121,117.879C105.293,119.051 105.293,120.949 104.121,122.121C103.535,122.707 102.77,123 102,123Z" style="fill:rgb(255,210,5);fill-rule:nonzero;"/>
                            <path d="M126,111C125.23,111 124.465,110.707 123.879,110.121C122.707,108.949 122.707,107.051 123.879,105.879L135.879,93.879C137.051,92.707 138.949,92.707 140.121,93.879C141.293,95.051 141.293,96.949 140.121,98.121L128.121,110.121C127.535,110.707 126.77,111 126,111Z" style="fill:rgb(145,200,60);fill-rule:nonzero;"/>
                            <path d="M132,63C131.23,63 130.465,62.707 129.879,62.121C128.707,60.949 128.707,59.051 129.879,57.879L141.879,45.879C143.051,44.707 144.949,44.707 146.121,45.879C147.293,47.051 147.293,48.949 146.121,50.121L134.121,62.121C133.535,62.707 132.77,63 132,63Z" style="fill:rgb(145,200,60);fill-rule:nonzero;"/>
                        </g>
                    </g>
                </g>
            </g>
        </g>
    </g>
</svg>
