<?xml version="1.0" encoding="UTF-8" standalone="no"?><!DOCTYPE svg PUBLIC "-//W3C//DTD SVG 1.1//EN" "http://www.w3.org/Graphics/SVG/1.1/DTD/svg11.dtd"><svg width="100%" height="100%" viewBox="0 0 204 418" version="1.1" xmlns="http://www.w3.org/2000/svg" xmlns:xlink="http://www.w3.org/1999/xlink" xml:space="preserve" xmlns:serif="http://www.serif.com/" style="fill-rule:evenodd;clip-rule:evenodd;stroke-linejoin:round;stroke-miterlimit:2;"><path d="M203.811,228.06l0,82.818c-4.12,-0.962 -8.202,-2.021 -12.245,-3.174c7.954,-25.135 12.245,-51.892 12.245,-79.644Z" style="fill:#23578B;"/><path d="M202.034,197.295l1.777,1.026l0,29.739c0,-10.406 -0.603,-20.672 -1.777,-30.765Z" style="fill:#23578B;"/><path d="M69.053,231.725l-11.12,3.544c-7.995,2.548 -16.694,1.608 -23.961,-2.587l-33.972,-19.614l0,-111.17c0,-6.284 0.569,-12.435 1.658,-18.404c6.375,56.796 30.799,108.165 67.395,148.231Z" style="fill:#23578B;"/><path d="M203.811,310.878l0,4.842c-0,47.789 -32.897,87.893 -77.28,98.904c29.544,-29.57 52.119,-66.107 65.035,-106.92c4.043,1.153 8.125,2.212 12.245,3.174Z" style="fill:#018446;"/><path d="M203.811,101.898l0,55.8c-4.096,-2.366 -7.925,-4.577 -11.409,-6.591c-18.972,-62.272 -60.361,-114.813 -114.748,-148.205c7.77,-1.897 15.89,-2.902 24.244,-2.902l0.015,0c56.277,-0 101.898,45.621 101.898,101.898Z" style="fill:#018446;"/><path d="M0,315.72l0,-62.043l16.388,9.462c7.267,4.195 12.429,11.259 14.221,19.457l2.986,13.667c1.791,8.198 6.954,15.262 14.221,19.457l74.759,43.162c4.661,2.692 10.623,1.092 13.315,-3.57c1.292,-2.238 1.644,-4.901 0.975,-7.398c-0.669,-2.496 -2.303,-4.625 -4.541,-5.918l-57.274,-33.067c-4.086,-2.359 -5.485,-7.585 -3.126,-11.671c2.359,-4.086 7.584,-5.487 11.67,-3.128l56.346,32.531c5.174,2.987 11.792,1.212 14.779,-3.962c2.987,-5.174 1.215,-11.792 -3.958,-14.779l-56.347,-32.531c-4.086,-2.359 -5.485,-7.586 -3.126,-11.672c1.555,-2.693 4.356,-4.22 7.255,-4.272c27.12,21.853 58.644,38.456 93.023,48.259c-12.916,40.813 -35.491,77.35 -65.035,106.92c-7.884,1.956 -16.129,2.994 -24.618,2.994l-0.015,0c-56.277,0 -101.898,-45.621 -101.898,-101.898Z" style="fill:#feb445;"/><path d="M192.402,151.107l-3.016,-1.742c-9.617,-5.553 -16.858,-14.433 -20.408,-24.956c-5.315,-15.751 -18.554,-31.496 -37.317,-42.329c-32.599,-18.821 -69.686,-15.704 -82.769,6.955c-13.082,22.66 2.763,56.336 35.362,75.157c19.009,10.975 39.548,14.513 55.952,11.007c11.048,-2.361 22.578,-0.564 32.362,5.083l29.466,17.013c1.174,10.093 1.777,20.359 1.777,30.765c0,27.752 -4.291,54.509 -12.245,79.644c-34.379,-9.803 -65.903,-26.406 -93.023,-48.259c1.499,-0.027 3.023,0.34 4.416,1.144l57.274,33.067c2.238,1.293 4.899,1.643 7.396,0.974c2.496,-0.669 4.626,-2.305 5.919,-4.544c2.691,-4.661 1.096,-10.624 -3.566,-13.316l-74.759,-43.162c-7.267,-4.195 -15.965,-5.134 -23.96,-2.587l-2.21,0.704c-36.596,-40.066 -61.02,-91.435 -67.395,-148.231c7.215,-39.555 37.268,-71.14 75.996,-80.592c54.387,33.392 95.776,85.933 114.748,148.205Z" style="fill:#609b28;"/></svg>