<?xml version="1.0" encoding="UTF-8" standalone="no"?><!DOCTYPE svg PUBLIC "-//W3C//DTD SVG 1.1//EN" "http://www.w3.org/Graphics/SVG/1.1/DTD/svg11.dtd"><svg width="100%" height="100%" viewBox="0 0 825 418" version="1.1" xmlns="http://www.w3.org/2000/svg" xmlns:xlink="http://www.w3.org/1999/xlink" xml:space="preserve" xmlns:serif="http://www.serif.com/" style="fill-rule:evenodd;clip-rule:evenodd;stroke-linejoin:round;stroke-miterlimit:2;"><g><g><path d="M531.874,228.06c0,-10.406 -0.603,-20.672 -1.777,-30.765l1.777,1.026l0,29.739Zm0,-0l0,82.818c-4.12,-0.962 -8.202,-2.021 -12.245,-3.174c7.954,-25.135 12.245,-51.892 12.245,-79.644Zm-134.758,3.665l-11.12,3.544c-7.995,2.548 -16.694,1.608 -23.961,-2.587l-33.972,-19.614l-0,-111.17c-0,-6.284 0.569,-12.435 1.658,-18.404c6.375,56.796 30.799,108.165 67.395,148.231Z" style="fill:#2042a9;"/><path d="M531.874,310.878l0,4.842c-0,47.789 -32.897,87.893 -77.28,98.904c29.544,-29.57 52.119,-66.107 65.035,-106.92c4.043,1.153 8.125,2.212 12.245,3.174Z" style="fill:#115acb;"/><path d="M531.874,101.898l0,55.8c-4.096,-2.366 -7.925,-4.577 -11.41,-6.591c-18.971,-62.272 -60.36,-114.813 -114.747,-148.205c7.77,-1.897 15.89,-2.902 24.244,-2.902l0.015,0c56.277,-0 101.898,45.621 101.898,101.898Z" style="fill:#115acb;"/><path d="M328.063,315.72l-0,-62.043l16.388,9.462c7.267,4.195 12.429,11.259 14.221,19.457l2.986,13.667c1.791,8.198 6.954,15.262 14.221,19.457l74.759,43.162c4.661,2.692 10.623,1.092 13.315,-3.57c1.292,-2.238 1.644,-4.901 0.975,-7.398c-0.669,-2.496 -2.303,-4.625 -4.541,-5.918l-57.274,-33.067c-4.086,-2.359 -5.485,-7.585 -3.126,-11.671c2.359,-4.086 7.584,-5.487 11.67,-3.128l56.346,32.531c5.174,2.987 11.792,1.212 14.779,-3.962c2.987,-5.174 1.215,-11.792 -3.959,-14.779l-56.346,-32.531c-4.086,-2.359 -5.485,-7.586 -3.126,-11.672c1.555,-2.693 4.356,-4.22 7.255,-4.272c27.12,21.853 58.644,38.456 93.023,48.259c-12.916,40.813 -35.491,77.35 -65.035,106.92c-7.884,1.956 -16.13,2.994 -24.618,2.994l-0.015,0c-56.277,0 -101.898,-45.621 -101.898,-101.898Z" style="fill:#f7a832;"/><path d="M520.464,151.107l-3.015,-1.742c-9.617,-5.553 -16.858,-14.433 -20.408,-24.956c-5.315,-15.751 -18.554,-31.496 -37.317,-42.329c-32.599,-18.821 -69.686,-15.704 -82.769,6.955c-13.082,22.66 2.763,56.336 35.362,75.157c19.009,10.975 39.548,14.513 55.952,11.007c11.048,-2.361 22.578,-0.564 32.362,5.083l29.466,17.013c1.174,10.093 1.777,20.359 1.777,30.765c0,27.752 -4.291,54.509 -12.245,79.644c-34.379,-9.803 -65.903,-26.406 -93.023,-48.259c1.499,-0.027 3.023,0.34 4.416,1.144l57.274,33.067c2.238,1.293 4.899,1.643 7.395,0.974c2.497,-0.669 4.627,-2.305 5.92,-4.544c2.691,-4.661 1.095,-10.624 -3.566,-13.316l-74.759,-43.162c-7.267,-4.195 -15.965,-5.134 -23.961,-2.587l-2.209,0.704c-36.596,-40.066 -61.02,-91.435 -67.395,-148.231c7.215,-39.555 37.268,-71.14 75.996,-80.592c54.387,33.392 95.776,85.933 114.747,148.205Z" style="fill:#318df3;"/></g><path d="M22.202,175.983l-22.202,-0l-0,-28.915l22.202,0l0,-20.021l33.819,-18.703l0,38.724l30.98,0l0,28.915l-30.98,-0l0,49.051c0,2.926 0.302,5.636 0.904,8.132c0.602,2.496 1.764,4.604 3.485,6.325c2.41,2.754 5.852,4.131 10.327,4.131c2.926,-0 5.249,-0.302 6.97,-0.904c1.721,-0.602 3.356,-1.42 4.905,-2.453l9.552,29.689c-3.958,1.893 -8.218,3.313 -12.779,4.26c-4.561,0.947 -9.595,1.42 -15.102,1.42c-6.368,-0 -12.091,-0.99 -17.168,-2.969c-5.077,-1.979 -9.337,-4.69 -12.779,-8.132c-8.089,-7.745 -12.134,-18.76 -12.134,-33.045l0,-55.505Zm76.675,-28.915l31.754,0l-0,17.556l2.065,-0c1.549,-3.098 3.614,-5.938 6.196,-8.52c2.582,-2.581 5.464,-4.819 8.648,-6.712c3.184,-1.893 6.627,-3.356 10.327,-4.389c3.7,-1.032 7.358,-1.549 10.972,-1.549c4.475,0 8.304,0.43 11.488,1.291c3.184,0.861 5.895,1.979 8.132,3.356l-9.035,30.722c-2.066,-1.033 -4.346,-1.851 -6.842,-2.453c-2.495,-0.602 -5.55,-0.904 -9.164,-0.904c-4.647,0 -8.864,0.904 -12.651,2.711c-3.786,1.807 -7.013,4.346 -9.681,7.616c-2.667,3.27 -4.733,7.099 -6.196,11.488c-1.462,4.389 -2.194,9.165 -2.194,14.328l0,61.96l-33.819,-0l-0,-126.501Zm208.709,96.037c-5.852,10.327 -13.726,18.674 -23.622,25.042c-9.896,6.368 -21.987,9.552 -36.272,9.552c-9.638,0 -18.545,-1.678 -26.72,-5.034c-8.175,-3.356 -15.275,-8.046 -21.299,-14.07c-6.023,-6.024 -10.713,-13.123 -14.07,-21.298c-3.356,-8.176 -5.034,-17.168 -5.034,-26.978c0,-9.122 1.635,-17.771 4.905,-25.946c3.27,-8.175 7.831,-15.318 13.683,-21.427c5.852,-6.11 12.779,-10.972 20.782,-14.587c8.003,-3.614 16.824,-5.421 26.462,-5.421c10.154,-0 19.19,1.678 27.107,5.034c7.917,3.356 14.543,8.003 19.879,13.941c5.335,5.938 9.38,12.951 12.133,21.04c2.754,8.089 4.131,16.867 4.131,26.333l0,3.098c-0.172,1.032 -0.258,1.979 -0.258,2.84c-0.172,0.86 -0.258,1.807 -0.258,2.839l-95.263,0c0.689,5.164 2.109,9.596 4.26,13.296c2.151,3.7 4.819,6.798 8.003,9.294c3.184,2.495 6.669,4.302 10.456,5.421c3.786,1.119 7.659,1.678 11.617,1.678c7.745,0 14.156,-1.764 19.233,-5.292c5.078,-3.528 9.079,-7.96 12.005,-13.296l28.14,13.941Zm-30.722,-49.051c-0.172,-2.237 -0.903,-4.733 -2.194,-7.487c-1.291,-2.753 -3.184,-5.335 -5.68,-7.744c-2.495,-2.41 -5.593,-4.389 -9.294,-5.938c-3.7,-1.549 -8.132,-2.324 -13.295,-2.324c-7.229,0 -13.597,2.066 -19.104,6.196c-5.508,4.131 -9.38,9.897 -11.617,17.297l61.184,0Zm361.972,62.992l-2.065,0c-3.959,6.368 -9.294,11.402 -16.006,15.103c-6.713,3.7 -14.372,5.55 -22.977,5.55c-16.006,0 -27.925,-4.905 -35.756,-14.715c-7.831,-9.81 -11.746,-22.891 -11.746,-39.241l-0,-76.675l33.819,0l0,72.544c0,9.122 2.023,15.877 6.067,20.266c4.045,4.389 9.939,6.583 17.684,6.583c4.647,0 8.735,-0.989 12.263,-2.968c3.528,-1.98 6.54,-4.647 9.036,-8.004c2.495,-3.356 4.389,-7.314 5.679,-11.875c1.291,-4.561 1.937,-9.423 1.937,-14.586l-0,-61.96l33.819,0l0,126.501l-31.754,-0l-0,-16.523Zm50.342,-109.978l31.754,0l-0,17.556l2.065,-0c1.549,-3.098 3.615,-5.938 6.196,-8.52c2.582,-2.581 5.465,-4.819 8.649,-6.712c3.184,-1.893 6.626,-3.356 10.326,-4.389c3.701,-1.032 7.358,-1.549 10.972,-1.549c4.475,0 8.304,0.43 11.488,1.291c3.184,0.861 5.895,1.979 8.133,3.356l-9.036,30.722c-2.065,-1.033 -4.346,-1.851 -6.841,-2.453c-2.496,-0.602 -5.551,-0.904 -9.165,-0.904c-4.647,0 -8.864,0.904 -12.65,2.711c-3.787,1.807 -7.014,4.346 -9.681,7.616c-2.668,3.27 -4.733,7.099 -6.196,11.488c-1.463,4.389 -2.195,9.165 -2.195,14.328l0,61.96l-33.819,-0l-0,-126.501Zm113.592,-18.329c-2.926,-0 -5.723,-0.559 -8.39,-1.678c-2.668,-1.119 -4.992,-2.668 -6.971,-4.647c-1.979,-1.979 -3.528,-4.26 -4.647,-6.841c-1.119,-2.582 -1.678,-5.422 -1.678,-8.52c0,-3.098 0.559,-5.938 1.678,-8.519c1.119,-2.582 2.668,-4.862 4.647,-6.842c1.979,-1.979 4.303,-3.528 6.971,-4.647c2.667,-1.118 5.464,-1.678 8.39,-1.678c6.024,0 11.187,2.109 15.49,6.325c4.302,4.217 6.454,9.337 6.454,15.361c-0,6.024 -2.152,11.144 -6.454,15.361c-4.303,4.217 -9.466,6.325 -15.49,6.325Zm-16.781,144.83l0,-126.501l33.82,0l-0,126.501l-33.82,-0Z" style="fill:#1b2f66;"/><path d="M24.536,91.872l-12,-17l-6.667,6.266l-0,10.734l-5.867,-0l0,-48.667l5.867,-0l-0,32l17.867,-18.067l6.466,0l-13.866,14.4l14.533,20.334l-6.333,-0Zm23.666,0.666c-1.644,0 -3.178,-0.277 -4.6,-0.833c-1.422,-0.556 -2.655,-1.322 -3.7,-2.3c-1.044,-0.978 -1.866,-2.122 -2.466,-3.433c-0.6,-1.311 -0.9,-2.745 -0.9,-4.3c-0,-1.6 0.355,-3.056 1.066,-4.367c0.711,-1.311 1.722,-2.433 3.034,-3.367c1.311,-0.933 2.866,-1.666 4.666,-2.2c1.8,-0.533 3.767,-0.8 5.9,-0.8c1.689,0 3.4,0.156 5.134,0.467c1.733,0.311 3.266,0.733 4.6,1.267l-0,-2.8c-0,-2.845 -0.8,-5.078 -2.4,-6.7c-1.6,-1.623 -3.867,-2.434 -6.8,-2.434c-3.512,0 -7.2,1.356 -11.067,4.067l-1.933,-3.8c4.488,-3.022 9,-4.533 13.533,-4.533c4.578,-0 8.144,1.222 10.7,3.666c2.555,2.445 3.833,5.889 3.833,10.334l0,14.2c0,1.377 0.622,2.089 1.867,2.133l-0,5.067c-0.622,0.089 -1.133,0.155 -1.533,0.2c-0.4,0.044 -0.823,0.066 -1.267,0.066c-1.156,0 -2.078,-0.344 -2.767,-1.033c-0.689,-0.689 -1.1,-1.522 -1.233,-2.5l-0.133,-2.467c-1.556,2.089 -3.523,3.678 -5.9,4.767c-2.378,1.089 -4.923,1.633 -7.634,1.633Zm1.534,-4.4c2.088,0 4.033,-0.389 5.833,-1.166c1.8,-0.778 3.167,-1.811 4.1,-3.1c0.844,-0.845 1.267,-1.711 1.267,-2.6l-0,-5.134c-2.845,-1.111 -5.8,-1.666 -8.867,-1.666c-2.933,-0 -5.322,0.622 -7.167,1.866c-1.844,1.245 -2.766,2.867 -2.766,4.867c-0,0.978 0.188,1.889 0.566,2.733c0.378,0.845 0.911,1.578 1.6,2.2c0.689,0.623 1.5,1.111 2.434,1.467c0.933,0.356 1.933,0.533 3,0.533Zm60,3.734l-5.867,-0l-0,-19.467c-0,-3.733 -0.567,-6.444 -1.7,-8.133c-1.133,-1.689 -2.856,-2.534 -5.167,-2.534c-1.2,0 -2.4,0.234 -3.6,0.7c-1.2,0.467 -2.333,1.1 -3.4,1.9c-1.066,0.8 -2,1.756 -2.8,2.867c-0.8,1.111 -1.4,2.333 -1.8,3.667l0,21l-5.866,-0l-0,-34.8l5.333,-0l-0,7.466c1.378,-2.444 3.367,-4.4 5.967,-5.866c2.6,-1.467 5.433,-2.2 8.5,-2.2c2,-0 3.666,0.366 5,1.1c1.333,0.733 2.4,1.755 3.2,3.066c0.8,1.311 1.366,2.856 1.7,4.634c0.333,1.777 0.5,3.711 0.5,5.8l-0,20.8Zm30.466,-1.734c-0.355,0.178 -0.822,0.389 -1.4,0.634c-0.578,0.244 -1.233,0.489 -1.966,0.733c-0.734,0.244 -1.534,0.444 -2.4,0.6c-0.867,0.156 -1.767,0.233 -2.7,0.233c-2.134,0 -3.978,-0.589 -5.534,-1.766c-1.555,-1.178 -2.333,-3.011 -2.333,-5.5l-0,-23.4l-4.733,-0l-0,-4.6l4.733,-0l-0,-11.6l5.867,-0l-0,11.6l7.8,-0l-0,4.6l-7.8,-0l-0,21.6c0.088,1.289 0.511,2.222 1.266,2.8c0.756,0.577 1.645,0.866 2.667,0.866c1.155,0 2.211,-0.189 3.167,-0.566c0.955,-0.378 1.611,-0.678 1.966,-0.9l1.4,4.666Zm8.8,1.734l0,-34.8l5.867,-0l-0,34.8l-5.867,-0Zm0,-41.334l0,-7.333l5.867,-0l-0,7.333l-5.867,0Zm48.867,41.334l-5.867,-0l0,-19.467c0,-3.733 -0.566,-6.444 -1.7,-8.133c-1.133,-1.689 -2.855,-2.534 -5.166,-2.534c-1.2,0 -2.4,0.234 -3.6,0.7c-1.2,0.467 -2.334,1.1 -3.4,1.9c-1.067,0.8 -2,1.756 -2.8,2.867c-0.8,1.111 -1.4,2.333 -1.8,3.667l-0,21l-5.867,-0l-0,-34.8l5.333,-0l0,7.466c1.378,-2.444 3.367,-4.4 5.967,-5.866c2.6,-1.467 5.433,-2.2 8.5,-2.2c2,-0 3.667,0.366 5,1.1c1.333,0.733 2.4,1.755 3.2,3.066c0.8,1.311 1.367,2.856 1.7,4.634c0.333,1.777 0.5,3.711 0.5,5.8l-0,20.8Z" style="fill:#1b2f66;"/><g transform="matrix(66.6667,0,0,66.6667,646.78,356.038)"><path d="M0.213,-0.371c-0.001,0.033 -0.002,0.059 -0.002,0.078c0,0.048 0.003,0.085 0.008,0.112c0.005,0.027 0.013,0.047 0.024,0.058c0.012,0.012 0.028,0.018 0.049,0.018c0.011,0 0.023,-0.003 0.038,-0.01c0.015,-0.007 0.028,-0.015 0.04,-0.026c0.007,-0.007 0.015,-0.01 0.022,-0.01c0.008,0 0.015,0.005 0.02,0.013c0.005,0.009 0.007,0.02 0.007,0.033c0,0.013 -0.002,0.025 -0.007,0.037c-0.005,0.012 -0.013,0.022 -0.023,0.03c-0.035,0.029 -0.074,0.043 -0.118,0.043c-0.063,-0 -0.11,-0.027 -0.139,-0.08c-0.029,-0.053 -0.044,-0.122 -0.044,-0.207c0,-0.029 0.001,-0.059 0.003,-0.089l-0.039,0c-0.02,0 -0.033,-0.004 -0.04,-0.011c-0.007,-0.007 -0.011,-0.019 -0.011,-0.035c0,-0.037 0.015,-0.056 0.045,-0.056l0.057,0c0.011,-0.073 0.029,-0.14 0.052,-0.201c0.023,-0.061 0.052,-0.109 0.085,-0.145c0.033,-0.036 0.068,-0.054 0.106,-0.054c0.028,0 0.05,0.012 0.066,0.037c0.016,0.025 0.024,0.056 0.024,0.093c0,0.103 -0.043,0.193 -0.13,0.27l0.112,0c0.011,0 0.018,0.002 0.023,0.007c0.005,0.005 0.007,0.013 0.007,0.026c0,0.046 -0.038,0.069 -0.113,0.069l-0.122,0Zm0.106,-0.406c-0.01,0 -0.021,0.013 -0.033,0.038c-0.013,0.024 -0.025,0.059 -0.036,0.104c-0.01,0.044 -0.02,0.093 -0.027,0.147c0.039,-0.034 0.069,-0.072 0.089,-0.114c0.019,-0.043 0.029,-0.081 0.029,-0.116c0,-0.039 -0.007,-0.059 -0.022,-0.059Z" style="fill:#6d88cf;fill-rule:nonzero;"/></g><g transform="matrix(66.6667,0,0,66.6667,646.78,356.038)"></g><g transform="matrix(66.6667,0,0,66.6667,794.847,356.038)"><path d="M0.213,-0.371c-0.001,0.033 -0.002,0.059 -0.002,0.078c0,0.048 0.003,0.085 0.008,0.112c0.005,0.027 0.013,0.047 0.024,0.058c0.012,0.012 0.028,0.018 0.049,0.018c0.011,0 0.023,-0.003 0.038,-0.01c0.015,-0.007 0.028,-0.015 0.04,-0.026c0.007,-0.007 0.015,-0.01 0.022,-0.01c0.008,0 0.015,0.005 0.02,0.013c0.005,0.009 0.007,0.02 0.007,0.033c0,0.013 -0.002,0.025 -0.007,0.037c-0.005,0.012 -0.013,0.022 -0.023,0.03c-0.035,0.029 -0.074,0.043 -0.118,0.043c-0.063,-0 -0.11,-0.027 -0.139,-0.08c-0.029,-0.053 -0.044,-0.122 -0.044,-0.207c0,-0.029 0.001,-0.059 0.003,-0.089l-0.039,0c-0.02,0 -0.033,-0.004 -0.04,-0.011c-0.007,-0.007 -0.011,-0.019 -0.011,-0.035c0,-0.037 0.015,-0.056 0.045,-0.056l0.057,0c0.011,-0.073 0.029,-0.14 0.052,-0.201c0.023,-0.061 0.052,-0.109 0.085,-0.145c0.033,-0.036 0.068,-0.054 0.106,-0.054c0.028,0 0.05,0.012 0.066,0.037c0.016,0.025 0.024,0.056 0.024,0.093c0,0.103 -0.043,0.193 -0.13,0.27l0.112,0c0.011,0 0.018,0.002 0.023,0.007c0.005,0.005 0.007,0.013 0.007,0.026c0,0.046 -0.038,0.069 -0.113,0.069l-0.122,0Zm0.106,-0.406c-0.01,0 -0.021,0.013 -0.033,0.038c-0.013,0.024 -0.025,0.059 -0.036,0.104c-0.01,0.044 -0.02,0.093 -0.027,0.147c0.039,-0.034 0.069,-0.072 0.089,-0.114c0.019,-0.043 0.029,-0.081 0.029,-0.116c0,-0.039 -0.007,-0.059 -0.022,-0.059Z" style="fill:#6d88cf;fill-rule:nonzero;"/></g><g transform="matrix(66.6667,0,0,66.6667,794.847,356.038)"></g><g transform="matrix(66.6667,0,0,66.6667,825.714,356.038)"></g><text x="582.58px" y="356.038px" style="font-family:'Pacifico-Regular', 'Pacifico';font-size:66.667px;fill:#6d88cf;">e<tspan x="612.114px 677.647px 698.647px 733.514px 763.047px " y="356.038px 356.038px 356.038px 356.038px 356.038px ">a bes</tspan></text><g transform="matrix(66.6667,0,0,66.6667,133.869,356.038)"><path d="M0.412,-0.223c0.007,0.055 0.018,0.109 0.032,0.162c0.003,0.009 0.004,0.018 0.004,0.027c-0,0.03 -0.018,0.045 -0.055,0.045c-0.021,0 -0.037,-0.006 -0.048,-0.017c-0.011,-0.011 -0.021,-0.033 -0.03,-0.064l-0.001,-0.004c-0.025,0.031 -0.048,0.052 -0.069,0.063c-0.02,0.011 -0.043,0.016 -0.07,0.016c-0.041,0 -0.074,-0.015 -0.101,-0.045c-0.026,-0.031 -0.039,-0.07 -0.039,-0.119c-0,-0.053 0.011,-0.103 0.034,-0.148c0.023,-0.045 0.054,-0.082 0.093,-0.111c0.039,-0.029 0.083,-0.047 0.132,-0.053c0.013,-0.126 0.037,-0.236 0.072,-0.329c0.036,-0.093 0.084,-0.14 0.143,-0.14c0.029,0 0.052,0.013 0.071,0.039c0.019,0.026 0.029,0.065 0.029,0.118c-0,0.073 -0.018,0.159 -0.054,0.257c-0.036,0.098 -0.084,0.199 -0.143,0.303Zm0.086,-0.619c-0.019,0 -0.038,0.049 -0.055,0.148c-0.017,0.099 -0.028,0.206 -0.034,0.322c0.074,-0.16 0.111,-0.29 0.111,-0.39c0,-0.025 -0.002,-0.045 -0.007,-0.059c-0.004,-0.014 -0.009,-0.021 -0.015,-0.021Zm-0.288,0.746c0.013,0 0.026,-0.005 0.039,-0.015c0.012,-0.01 0.028,-0.029 0.047,-0.058c-0.007,-0.049 -0.01,-0.099 -0.01,-0.151c0,-0.021 0,-0.037 0.001,-0.048c-0.037,0.011 -0.067,0.035 -0.091,0.073c-0.024,0.038 -0.036,0.08 -0.036,0.126c0,0.049 0.017,0.073 0.05,0.073Z" style="fill:#6d88cf;fill-rule:nonzero;"/></g><g transform="matrix(66.6667,0,0,66.6667,133.869,356.038)"></g><g transform="matrix(66.6667,0,0,66.6667,277.469,356.038)"><path d="M0.234,0.027c-0.035,0 -0.061,-0.008 -0.08,-0.024c-0.018,-0.016 -0.027,-0.034 -0.027,-0.054c-0,-0.017 0.006,-0.032 0.019,-0.045c0.013,-0.013 0.031,-0.019 0.056,-0.019c0.009,0 0.019,0.001 0.031,0.003c0.011,0.001 0.02,0.002 0.026,0.003c-0.001,-0.017 -0.005,-0.034 -0.012,-0.049c-0.006,-0.015 -0.015,-0.03 -0.026,-0.045c-0.011,-0.014 -0.021,-0.026 -0.03,-0.037c-0.021,0.039 -0.041,0.072 -0.062,0.098c-0.02,0.026 -0.042,0.051 -0.066,0.074c-0.012,0.012 -0.025,0.018 -0.038,0.018c-0.011,0 -0.019,-0.004 -0.026,-0.011c-0.007,-0.008 -0.01,-0.018 -0.01,-0.029c0,-0.013 0.005,-0.026 0.014,-0.037l0.013,-0.016c0.037,-0.045 0.064,-0.083 0.083,-0.112c0.012,-0.019 0.024,-0.042 0.037,-0.069c0.012,-0.027 0.028,-0.063 0.048,-0.109c0.013,-0.029 0.039,-0.044 0.079,-0.044c0.019,-0 0.032,0.002 0.039,0.005c0.007,0.003 0.011,0.009 0.011,0.016c0,0.004 -0.001,0.01 -0.004,0.019c-0.003,0.009 -0.006,0.017 -0.011,0.026c-0.012,0.024 -0.018,0.044 -0.018,0.061c0,0.01 0.004,0.021 0.011,0.033c0.007,0.012 0.017,0.027 0.032,0.045c0.021,0.028 0.038,0.052 0.049,0.071c0.011,0.02 0.016,0.042 0.016,0.065c0,0.028 -0.006,0.054 -0.019,0.079c-0.013,0.025 -0.032,0.046 -0.055,0.061c-0.023,0.015 -0.05,0.023 -0.08,0.023Z" style="fill:#6d88cf;fill-rule:nonzero;"/></g><g transform="matrix(66.6667,0,0,66.6667,277.469,356.038)"></g><g transform="matrix(66.6667,0,0,66.6667,307.069,356.038)"></g><text x="0.736px" y="356.038px" style="font-family:'Pacifico-Regular', 'Pacifico';font-size:66.667px;fill:#6d88cf;">s<tspan x="32.536px 67.936px 97.469px 170.069px 191.069px 216.136px 245.669px " y="356.038px 356.038px 356.038px 356.038px 356.038px 356.038px 356.038px ">pen les</tspan></text></g></svg>