<?xml version="1.0" encoding="UTF-8" standalone="no"?>
<!DOCTYPE svg PUBLIC "-//W3C//DTD SVG 1.1//EN" "http://www.w3.org/Graphics/SVG/1.1/DTD/svg11.dtd">
<svg width="100%" height="100%" viewBox="0 0 199 101" version="1.1" xmlns="http://www.w3.org/2000/svg" xmlns:xlink="http://www.w3.org/1999/xlink" xml:space="preserve" xmlns:serif="http://www.serif.com/" style="fill-rule:evenodd;clip-rule:evenodd;stroke-linejoin:round;stroke-miterlimit:2;">
    <g transform="matrix(1,0,0,1,-3855,627)">
        <g transform="matrix(1,0,0,1,3801.36,-1001.8)">
            <g transform="matrix(1,0,0,1,-836.063,154.998)">
                <g transform="matrix(1,0,0,1,0,-16.7382)">
                    <path d="M1018.35,292.019C1018.35,289.521 1018.2,287.058 1017.92,284.635L1018.35,284.881L1018.35,292.019ZM1018.35,292.019L1018.35,311.895C1017.36,311.664 1016.38,311.41 1015.41,311.133C1017.32,305.101 1018.35,298.679 1018.35,292.019ZM986.004,292.899L983.335,293.749C981.416,294.36 979.328,294.135 977.584,293.128L969.431,288.421L969.431,261.74C969.431,260.232 969.568,258.756 969.829,257.323C971.359,270.954 977.221,283.283 986.004,292.899Z" style="fill:rgb(32,66,169);"/>
                </g>
                <g transform="matrix(1,0,0,1,0,-16.7382)">
                    <path d="M1018.35,311.895L1018.35,313.057C1018.35,324.527 1010.45,334.152 999.798,336.794C1006.89,329.697 1012.31,320.929 1015.41,311.133C1016.38,311.41 1017.36,311.664 1018.35,311.895Z" style="fill:rgb(17,90,203);"/>
                </g>
                <g transform="matrix(1,0,0,1,30.7423,73.4256)">
                    <path d="M865.282,189.357L859.954,189.357L859.954,182.417L865.282,182.417L865.282,177.612L873.399,173.123L873.399,182.417L880.834,182.417L880.834,189.357L873.399,189.357L873.399,201.129C873.399,201.831 873.471,202.482 873.616,203.081C873.76,203.679 874.039,204.185 874.452,204.599C875.03,205.259 875.856,205.59 876.93,205.59C877.633,205.59 878.19,205.518 878.603,205.373C879.016,205.228 879.409,205.032 879.781,204.784L882.073,211.91C881.123,212.364 880.101,212.705 879.006,212.932C877.911,213.159 876.703,213.273 875.381,213.273C873.853,213.273 872.48,213.035 871.261,212.56C870.043,212.085 869.02,211.435 868.194,210.609C866.253,208.75 865.282,206.106 865.282,202.678L865.282,189.357ZM883.684,182.417L891.305,182.417L891.305,186.63L891.801,186.63C892.172,185.887 892.668,185.205 893.288,184.586C893.907,183.966 894.599,183.429 895.363,182.975C896.127,182.52 896.954,182.169 897.842,181.921C898.73,181.674 899.607,181.55 900.475,181.55C901.549,181.55 902.468,181.653 903.232,181.859C903.996,182.066 904.647,182.335 905.184,182.665L903.015,190.038C902.52,189.79 901.972,189.594 901.373,189.449C900.774,189.305 900.041,189.233 899.174,189.233C898.058,189.233 897.046,189.449 896.138,189.883C895.229,190.317 894.455,190.926 893.814,191.711C893.174,192.496 892.678,193.415 892.327,194.468C891.976,195.521 891.801,196.668 891.801,197.907L891.801,212.777L883.684,212.777L883.684,182.417ZM933.774,205.466C932.37,207.944 930.48,209.948 928.105,211.476C925.73,213.004 922.828,213.768 919.4,213.768C917.086,213.768 914.949,213.366 912.987,212.56C911.025,211.755 909.321,210.629 907.875,209.184C906.429,207.738 905.304,206.034 904.498,204.072C903.693,202.11 903.29,199.952 903.29,197.597C903.29,195.408 903.683,193.332 904.467,191.37C905.252,189.408 906.347,187.694 907.751,186.228C909.156,184.761 910.818,183.594 912.739,182.727C914.66,181.859 916.777,181.426 919.09,181.426C921.527,181.426 923.695,181.829 925.596,182.634C927.496,183.439 929.086,184.555 930.366,185.98C931.647,187.405 932.618,189.088 933.278,191.029C933.939,192.971 934.27,195.077 934.27,197.349L934.27,198.093C934.228,198.341 934.208,198.568 934.208,198.774C934.167,198.981 934.146,199.208 934.146,199.456L911.283,199.456C911.448,200.695 911.789,201.759 912.305,202.647C912.822,203.535 913.462,204.278 914.226,204.877C914.99,205.476 915.827,205.91 916.735,206.178C917.644,206.447 918.573,206.581 919.524,206.581C921.382,206.581 922.921,206.158 924.139,205.311C925.358,204.464 926.318,203.401 927.021,202.12L933.774,205.466ZM926.401,193.694C926.36,193.157 926.184,192.558 925.874,191.897C925.565,191.236 925.11,190.616 924.511,190.038C923.912,189.46 923.169,188.985 922.281,188.613C921.393,188.241 920.329,188.055 919.09,188.055C917.355,188.055 915.827,188.551 914.505,189.542C913.183,190.534 912.254,191.918 911.717,193.694L926.401,193.694ZM1013.27,208.812L1012.78,208.812C1011.83,210.34 1010.55,211.548 1008.94,212.436C1007.33,213.324 1005.49,213.768 1003.42,213.768C999.581,213.768 996.721,212.591 994.841,210.237C992.962,207.882 992.022,204.743 992.022,200.819L992.022,182.417L1000.14,182.417L1000.14,199.828C1000.14,202.017 1000.62,203.638 1001.6,204.691C1002.57,205.745 1003.98,206.271 1005.84,206.271C1006.95,206.271 1007.94,206.034 1008.78,205.559C1009.63,205.084 1010.35,204.444 1010.95,203.638C1011.55,202.833 1012,201.883 1012.31,200.788C1012.62,199.693 1012.78,198.527 1012.78,197.287L1012.78,182.417L1020.89,182.417L1020.89,212.777L1013.27,212.777L1013.27,208.812ZM1025.36,182.417L1032.98,182.417L1032.98,186.63L1033.47,186.63C1033.85,185.887 1034.34,185.205 1034.96,184.586C1035.58,183.966 1036.27,183.429 1037.04,182.975C1037.8,182.52 1038.63,182.169 1039.51,181.921C1040.4,181.674 1041.28,181.55 1042.15,181.55C1043.22,181.55 1044.14,181.653 1044.9,181.859C1045.67,182.066 1046.32,182.335 1046.86,182.665L1044.69,190.038C1044.19,189.79 1043.64,189.594 1043.05,189.449C1042.45,189.305 1041.71,189.233 1040.85,189.233C1039.73,189.233 1038.72,189.449 1037.81,189.883C1036.9,190.317 1036.13,190.926 1035.49,191.711C1034.85,192.496 1034.35,193.415 1034,194.468C1033.65,195.521 1033.47,196.668 1033.47,197.907L1033.47,212.777L1025.36,212.777L1025.36,182.417ZM1052.62,178.018C1051.92,178.018 1051.25,177.884 1050.61,177.615C1049.96,177.347 1049.41,176.975 1048.93,176.5C1048.46,176.025 1048.09,175.478 1047.82,174.858C1047.55,174.238 1047.41,173.557 1047.41,172.813C1047.41,172.07 1047.55,171.388 1047.82,170.769C1048.09,170.149 1048.46,169.602 1048.93,169.127C1049.41,168.652 1049.96,168.28 1050.61,168.012C1051.25,167.743 1051.92,167.609 1052.62,167.609C1054.06,167.609 1055.3,168.115 1056.34,169.127C1057.37,170.139 1057.88,171.368 1057.88,172.813C1057.88,174.259 1057.37,175.488 1056.34,176.5C1055.3,177.512 1054.06,178.018 1052.62,178.018ZM1048.59,212.777L1048.59,182.417L1056.71,182.417L1056.71,212.777L1048.59,212.777Z" style="fill:rgb(27,47,102);"/>
                </g>
                <g transform="matrix(1,0,0,1,-26.7185,-10.3374)">
                    <path d="M1045.06,255.339L1045.06,268.731C1044.08,268.163 1043.16,267.633 1042.33,267.149C1037.77,252.204 1027.84,239.594 1014.79,231.58C1016.65,231.125 1018.6,230.884 1020.61,230.884L1020.61,230.884C1034.12,230.884 1045.06,241.833 1045.06,255.339Z" style="fill:rgb(17,90,203);"/>
                </g>
                <g transform="matrix(1,0,0,1,-104.53,31.4917)">
                    <path d="M1073.96,264.828L1073.96,249.937L1077.89,252.208C1079.64,253.215 1080.88,254.91 1081.31,256.878L1082.02,260.158C1082.45,262.125 1083.69,263.821 1085.44,264.828L1103.38,275.186C1104.5,275.832 1105.93,275.448 1106.57,274.33C1106.88,273.792 1106.97,273.153 1106.81,272.554C1106.65,271.955 1106.26,271.444 1105.72,271.134L1091.97,263.198C1090.99,262.632 1090.66,261.377 1091.22,260.397C1091.79,259.416 1093.04,259.08 1094.02,259.646L1107.55,267.453C1108.79,268.17 1110.38,267.744 1111.09,266.503C1111.81,265.261 1111.38,263.672 1110.14,262.956L1096.62,255.148C1095.64,254.582 1095.3,253.327 1095.87,252.347C1096.24,251.7 1096.92,251.334 1097.61,251.321C1104.12,256.566 1111.69,260.551 1119.94,262.904C1116.84,272.699 1111.42,281.468 1104.33,288.565C1102.44,289.034 1100.46,289.283 1098.42,289.283L1098.42,289.283C1084.91,289.283 1073.96,278.334 1073.96,264.828Z" style="fill:rgb(247,168,50);"/>
                </g>
                <g transform="matrix(1,0,0,1,-104.53,31.4917)">
                    <path d="M1120.14,225.32L1119.41,224.902C1117.11,223.57 1115.37,221.438 1114.52,218.913C1113.24,215.133 1110.06,211.354 1105.56,208.754C1097.74,204.237 1088.84,204.985 1085.69,210.423C1082.56,215.861 1086.36,223.944 1094.18,228.461C1098.74,231.095 1103.67,231.944 1107.61,231.102C1110.26,230.536 1113.03,230.967 1115.38,232.322L1122.45,236.405C1122.73,238.828 1122.88,241.292 1122.88,243.789C1122.88,250.449 1121.85,256.871 1119.94,262.904C1111.69,260.551 1104.12,256.566 1097.61,251.321C1097.97,251.315 1098.34,251.403 1098.67,251.596L1112.42,259.532C1112.95,259.842 1113.59,259.926 1114.19,259.766C1114.79,259.605 1115.3,259.213 1115.61,258.675C1116.26,257.557 1115.88,256.125 1114.76,255.48L1096.82,245.121C1095.07,244.114 1092.98,243.888 1091.06,244.5L1090.53,244.669C1081.75,235.053 1075.89,222.724 1074.36,209.093C1076.09,199.6 1083.3,192.02 1092.6,189.751C1105.65,197.765 1115.58,210.375 1120.14,225.32Z" style="fill:rgb(49,141,243);"/>
                </g>
            </g>
        </g>
    </g>
</svg>
